<svg width="1097" height="181" viewBox="0 0 1097 181" fill="none" xmlns="http://www.w3.org/2000/svg">
<path d="M45.0191 120.767C50.1469 120.767 53.9025 119.322 56.2858 116.433C58.6691 113.544 59.8608 110.114 59.8608 106.142V98.5583C59.8608 93.8639 58.3441 90.5417 55.3108 88.5917C52.2775 86.5694 48.8469 85.5583 45.0191 85.5583H36.5691V120.767H45.0191ZM58.3441 47.5333C58.3441 43.2 57.1525 40.2028 54.7691 38.5417C52.3858 36.8083 48.9552 35.9417 44.4775 35.9417H36.5691V67.25H45.3441C49.533 67.25 52.7469 65.625 54.9858 62.375C57.2247 59.0528 58.3441 55.0083 58.3441 50.2417V47.5333ZM52.3858 142.975C46.7525 142.975 39.458 142.831 30.5025 142.542C21.5469 142.253 15.1191 142.072 11.2191 142H0.819124V15.0333H19.5608C24.1108 15.0333 29.3108 14.8889 35.1608 14.6C41.0108 14.2389 45.2358 14.0583 47.8358 14.0583C56.2858 14.0583 63.3997 14.7444 69.1775 16.1167C75.0275 17.4889 79.6136 19.5472 82.9358 22.2917C86.258 25.0361 88.6052 28.2139 89.9775 31.825C91.4219 35.4361 92.1441 39.7333 92.1441 44.7167C92.1441 52.3722 90.3747 58.9444 86.8358 64.4333C83.2969 69.9222 78.1691 73.3528 71.4525 74.725C88.4969 76.2417 97.0191 86.2444 97.0191 104.733C97.0191 110.294 96.1886 115.35 94.5275 119.9C92.8663 124.378 90.3025 128.386 86.8358 131.925C83.4413 135.392 78.8191 138.1 72.9691 140.05C67.1191 142 60.258 142.975 52.3858 142.975ZM161.309 127.592C160.876 128.603 159.973 129.939 158.601 131.6C157.301 133.261 155.567 135.103 153.401 137.125C151.234 139.075 148.562 140.736 145.384 142.108C142.206 143.553 138.992 144.275 135.742 144.275C125.559 144.275 118.265 141.242 113.859 135.175C109.526 129.108 107.359 118.997 107.359 104.842V66.275L103.567 62.375V49.9167H142.892V111.667C142.82 114.917 143.362 117.336 144.517 118.925C145.673 120.442 147.767 121.2 150.801 121.2C151.234 121.2 151.631 121.2 151.992 121.2C152.353 121.128 152.715 121.056 153.076 120.983C153.437 120.839 153.726 120.731 153.942 120.658C154.231 120.586 154.556 120.478 154.917 120.333C155.278 120.117 155.567 119.936 155.784 119.792C156.001 119.647 156.29 119.467 156.651 119.25C157.012 118.961 157.265 118.744 157.409 118.6C157.626 118.456 157.915 118.239 158.276 117.95C158.709 117.589 159.034 117.336 159.251 117.192V66.275L153.401 62.375V49.9167H194.676V142H164.667L161.309 127.592ZM244.571 142H209.579V71.9083L203.079 67.9V55.6583L226.371 49.9167H235.146L238.287 75.7C241.249 58.0056 250.746 49.1583 266.779 49.1583C268.585 49.1583 270.462 49.4833 272.412 50.1333L268.729 88.7C267.212 87.3278 263.89 86.6417 258.762 86.6417C251.396 86.6417 246.665 88.5917 244.571 92.4917V142ZM322.699 180.242C317.065 180.242 310.71 178.942 303.632 176.342C296.554 173.814 291.968 171.394 289.874 169.083L296.699 154.242C298.504 155.614 301.429 156.878 305.474 158.033C309.518 159.189 312.985 159.767 315.874 159.767C318.763 159.767 321.254 159.369 323.349 158.575C325.515 157.853 327.176 156.914 328.332 155.758C329.488 154.675 330.426 153.303 331.149 151.642C331.871 150.053 332.304 148.608 332.449 147.308C332.665 146.008 332.81 144.564 332.882 142.975V133.767C326.743 140.122 319.268 143.3 310.457 143.3C298.54 143.3 289.801 139.219 284.24 131.058C278.679 122.897 275.899 111.558 275.899 97.0417C275.899 90.2528 276.657 84.0056 278.174 78.3C279.69 72.5222 281.893 67.4667 284.782 63.1333C287.743 58.7278 291.571 55.2972 296.265 52.8417C300.96 50.3139 306.268 49.05 312.19 49.05C321.146 49.05 328.91 51.0361 335.482 55.0083L337.324 49.9167H353.899L374.265 50.8917V61.075L367.765 65.625V137.992C367.765 166.158 352.743 180.242 322.699 180.242ZM326.165 123.583C328.332 123.583 330.571 122.969 332.882 121.742V64.65C331.149 64.2889 329.56 64.1083 328.115 64.1083C318.51 64.1806 313.671 71.5833 313.599 86.3167V103.108C313.599 107.731 314.213 111.703 315.44 115.025C317.607 120.731 321.182 123.583 326.165 123.583ZM431.512 85.9917C431.512 76.8194 431.042 70.3194 430.103 66.4917C429.165 62.6639 427.431 60.75 424.903 60.75C422.737 60.75 420.967 61.1472 419.595 61.9417C418.223 62.6639 417.212 63.8556 416.562 65.5167C415.912 67.1056 415.478 68.7667 415.262 70.5C415.117 72.1611 415.045 74.2917 415.045 76.8917V85.9917H431.512ZM422.845 144.275C414.756 144.275 407.715 143.047 401.72 140.592C395.798 138.136 391.103 134.706 387.637 130.3C384.242 125.894 381.751 120.947 380.162 115.458C378.573 109.897 377.778 103.722 377.778 96.9333C377.778 80.7556 381.895 68.5139 390.128 60.2083C398.362 51.9028 409.881 47.75 424.687 47.75C438.915 47.75 449.098 51.1083 455.237 57.825C461.376 64.4694 464.445 75.1944 464.445 90V102.025H414.937V104.083C414.937 108.344 415.37 111.847 416.237 114.592C417.176 117.336 418.512 119.358 420.245 120.658C421.979 121.958 423.748 122.825 425.553 123.258C427.359 123.692 429.562 123.908 432.162 123.908C434.69 123.908 437.398 123.583 440.287 122.933C443.248 122.283 446.209 121.272 449.17 119.9C452.204 118.528 454.731 116.903 456.753 115.025L463.145 125.967C460.473 130.3 456.537 133.947 451.337 136.908C446.209 139.797 441.262 141.747 436.495 142.758C431.728 143.769 427.178 144.275 422.845 144.275ZM511.172 142H476.181V71.9083L469.681 67.9V55.6583L492.972 49.9167H501.747L504.889 75.7C507.85 58.0056 517.347 49.1583 533.381 49.1583C535.186 49.1583 537.064 49.4833 539.014 50.1333L535.331 88.7C533.814 87.3278 530.492 86.6417 525.364 86.6417C517.997 86.6417 513.267 88.5917 511.172 92.4917V142ZM627.69 144.275C622.129 144.275 616.929 143.769 612.09 142.758C607.323 141.819 603.315 140.556 600.065 138.967C596.815 137.378 594.143 135.861 592.048 134.417C590.026 132.972 588.329 131.528 586.957 130.083L589.665 103.758C592.626 107.731 596.598 111.197 601.582 114.158C606.565 117.047 611.946 118.492 617.723 118.492C623.501 118.492 627.654 117.878 630.182 116.65C632.782 115.422 634.082 113.183 634.082 109.933C634.082 106.467 632.601 103.506 629.64 101.05C626.751 98.5944 621.732 95.6333 614.582 92.1667C611.982 90.8667 609.779 89.7111 607.973 88.7C606.168 87.6167 603.748 85.8833 600.715 83.5C597.754 81.0444 595.334 78.5167 593.457 75.9167C591.579 73.2444 589.918 69.85 588.473 65.7333C587.029 61.5444 586.307 57.0667 586.307 52.3C586.307 26.5167 600.859 13.625 629.965 13.625C634.587 13.625 638.921 14.1306 642.965 15.1417C647.082 16.0806 650.296 17.1278 652.607 18.2833C654.918 19.4389 657.012 20.8111 658.89 22.4C660.84 23.9167 662.068 25 662.573 25.65C663.079 26.2278 663.44 26.6972 663.657 27.0583L658.24 47.9667C655.423 44.6444 651.884 42.1889 647.623 40.6C643.434 38.9389 639.426 38.1083 635.598 38.1083C626.354 38.1083 621.732 40.9972 621.732 46.775C621.732 48.2917 622.021 49.6639 622.598 50.8917C623.176 52.1194 624.115 53.2389 625.415 54.25C626.715 55.2611 627.907 56.1278 628.99 56.85C630.146 57.5722 631.698 58.475 633.648 59.5583C635.671 60.5694 637.187 61.4 638.198 62.05C648.743 66.5278 656.471 71.8361 661.382 77.975C666.365 84.1139 668.857 91.5889 668.857 100.4C668.857 114.7 665.318 125.606 658.24 133.117C651.234 140.556 641.051 144.275 627.69 144.275ZM728.327 132.358L727.244 133.55C726.522 134.417 725.402 135.428 723.886 136.583C722.441 137.739 720.744 138.894 718.794 140.05C716.916 141.206 714.605 142.181 711.861 142.975C709.116 143.842 706.3 144.275 703.411 144.275C683.911 144.275 674.161 134.633 674.161 115.35C674.161 111.594 674.847 108.164 676.219 105.058C677.591 101.881 679.361 99.2083 681.527 97.0417C683.694 94.875 686.294 92.9611 689.327 91.3C692.361 89.5667 695.394 88.2306 698.427 87.2917C701.533 86.2806 704.783 85.45 708.177 84.8C711.572 84.15 714.605 83.7167 717.277 83.5C719.95 83.2833 722.514 83.175 724.969 83.175V81.225C724.969 76.8194 723.777 73.7139 721.394 71.9083C719.083 70.1028 715.327 69.2 710.127 69.2C705.65 69.2 700.991 69.7417 696.152 70.825C691.314 71.8361 687.522 73.0639 684.777 74.5083L677.844 59.775C682.755 56.5972 689.147 53.8167 697.019 51.4333C704.891 48.9778 712.908 47.75 721.069 47.75C728.291 47.75 734.25 48.4722 738.944 49.9167C743.639 51.2889 747.43 53.6722 750.319 57.0667C753.28 60.3889 755.375 64.65 756.602 69.85C757.83 74.9778 758.444 81.5139 758.444 89.4583V133.55L761.477 142H731.794L728.327 132.358ZM719.769 125.208C720.708 125.208 721.575 125.028 722.369 124.667C723.236 124.233 723.886 123.836 724.319 123.475C724.752 123.042 724.969 122.825 724.969 122.825V96.825C720.564 96.825 717.061 98.0528 714.461 100.508C711.861 102.892 710.561 106.611 710.561 111.667C710.561 120.694 713.63 125.208 719.769 125.208ZM771.107 142V19.475L764.607 15.575V5.5L799.382 0.0833331H806.424V142H771.107ZM867.658 132.358L866.575 133.55C865.853 134.417 864.733 135.428 863.217 136.583C861.772 137.739 860.075 138.894 858.125 140.05C856.247 141.206 853.936 142.181 851.192 142.975C848.447 143.842 845.631 144.275 842.742 144.275C823.242 144.275 813.492 134.633 813.492 115.35C813.492 111.594 814.178 108.164 815.55 105.058C816.922 101.881 818.692 99.2083 820.858 97.0417C823.025 94.875 825.625 92.9611 828.658 91.3C831.692 89.5667 834.725 88.2306 837.758 87.2917C840.864 86.2806 844.114 85.45 847.508 84.8C850.903 84.15 853.936 83.7167 856.608 83.5C859.281 83.2833 861.845 83.175 864.3 83.175V81.225C864.3 76.8194 863.108 73.7139 860.725 71.9083C858.414 70.1028 854.658 69.2 849.458 69.2C844.981 69.2 840.322 69.7417 835.483 70.825C830.645 71.8361 826.853 73.0639 824.108 74.5083L817.175 59.775C822.086 56.5972 828.478 53.8167 836.35 51.4333C844.222 48.9778 852.239 47.75 860.4 47.75C867.622 47.75 873.581 48.4722 878.275 49.9167C882.97 51.2889 886.761 53.6722 889.65 57.0667C892.611 60.3889 894.706 64.65 895.933 69.85C897.161 74.9778 897.775 81.5139 897.775 89.4583V133.55L900.808 142H871.125L867.658 132.358ZM859.1 125.208C860.039 125.208 860.906 125.028 861.7 124.667C862.567 124.233 863.217 123.836 863.65 123.475C864.083 123.042 864.3 122.825 864.3 122.825V96.825C859.895 96.825 856.392 98.0528 853.792 100.508C851.192 102.892 849.892 106.611 849.892 111.667C849.892 120.694 852.961 125.208 859.1 125.208ZM972.188 142L967.963 128.025C967.385 129.036 966.699 130.047 965.905 131.058C965.183 132.069 963.991 133.369 962.33 134.958C960.669 136.475 958.899 137.811 957.022 138.967C955.144 140.122 952.797 141.133 949.98 142C947.163 142.867 944.202 143.3 941.097 143.3C929.18 143.3 920.441 139.219 914.88 131.058C909.319 122.897 906.538 111.558 906.538 97.0417C906.538 87.9417 907.838 79.8528 910.438 72.775C913.038 65.625 917.119 59.8833 922.68 55.55C928.241 51.2167 934.958 49.05 942.83 49.05C947.524 49.05 951.713 49.5556 955.397 50.5667C959.08 51.5778 962.258 52.8056 964.93 54.25V21.425L953.013 17.4167V5.5L991.363 0.0833331H999.813V142H972.188ZM956.913 122.067C958.213 122.067 959.549 121.85 960.922 121.417C962.294 120.911 963.63 120.225 964.93 119.358V64.8667C962.691 64.3611 960.633 64.1083 958.755 64.1083C949.149 64.1806 944.31 71.5833 944.238 86.3167V101.483C944.238 108.272 945.43 113.4 947.813 116.867C950.197 120.333 953.23 122.067 956.913 122.067ZM1063.1 85.9917C1063.1 76.8194 1062.63 70.3194 1061.7 66.4917C1060.76 62.6639 1059.02 60.75 1056.5 60.75C1054.33 60.75 1052.56 61.1472 1051.19 61.9417C1049.81 62.6639 1048.8 63.8556 1048.15 65.5167C1047.5 67.1056 1047.07 68.7667 1046.85 70.5C1046.71 72.1611 1046.64 74.2917 1046.64 76.8917V85.9917H1063.1ZM1054.44 144.275C1046.35 144.275 1039.31 143.047 1033.31 140.592C1027.39 138.136 1022.7 134.706 1019.23 130.3C1015.83 125.894 1013.34 120.947 1011.75 115.458C1010.16 109.897 1009.37 103.722 1009.37 96.9333C1009.37 80.7556 1013.49 68.5139 1021.72 60.2083C1029.95 51.9028 1041.47 47.75 1056.28 47.75C1070.51 47.75 1080.69 51.1083 1086.83 57.825C1092.97 64.4694 1096.04 75.1944 1096.04 90V102.025H1046.53V104.083C1046.53 108.344 1046.96 111.847 1047.83 114.592C1048.77 117.336 1050.1 119.358 1051.84 120.658C1053.57 121.958 1055.34 122.825 1057.15 123.258C1058.95 123.692 1061.15 123.908 1063.75 123.908C1066.28 123.908 1068.99 123.583 1071.88 122.933C1074.84 122.283 1077.8 121.272 1080.76 119.9C1083.8 118.528 1086.32 116.903 1088.35 115.025L1094.74 125.967C1092.06 130.3 1088.13 133.947 1082.93 136.908C1077.8 139.797 1072.85 141.747 1068.09 142.758C1063.32 143.769 1058.77 144.275 1054.44 144.275Z" fill="white"/>
</svg>
