<svg width="1173" height="181" viewBox="0 0 1173 181" fill="none" xmlns="http://www.w3.org/2000/svg">
<path d="M44.4583 120.767C49.5861 120.767 53.3417 119.322 55.725 116.433C58.1083 113.544 59.3 110.114 59.3 106.142V98.5583C59.3 93.8639 57.7833 90.5417 54.75 88.5917C51.7167 86.5694 48.2861 85.5583 44.4583 85.5583H36.0083V120.767H44.4583ZM57.7833 47.5333C57.7833 43.2 56.5917 40.2028 54.2083 38.5417C51.825 36.8083 48.3944 35.9417 43.9167 35.9417H36.0083V67.25H44.7833C48.9722 67.25 52.1861 65.625 54.425 62.375C56.6639 59.0528 57.7833 55.0083 57.7833 50.2417V47.5333ZM51.825 142.975C46.1917 142.975 38.8972 142.831 29.9417 142.542C20.9861 142.253 14.5583 142.072 10.6583 142H0.258333V15.0333H19C23.55 15.0333 28.75 14.8889 34.6 14.6C40.45 14.2389 44.675 14.0583 47.275 14.0583C55.725 14.0583 62.8389 14.7444 68.6167 16.1167C74.4667 17.4889 79.0528 19.5472 82.375 22.2917C85.6972 25.0361 88.0444 28.2139 89.4167 31.825C90.8611 35.4361 91.5833 39.7333 91.5833 44.7167C91.5833 52.3722 89.8139 58.9444 86.275 64.4333C82.7361 69.9222 77.6083 73.3528 70.8917 74.725C87.9361 76.2417 96.4583 86.2444 96.4583 104.733C96.4583 110.294 95.6278 115.35 93.9667 119.9C92.3056 124.378 89.7417 128.386 86.275 131.925C82.8806 135.392 78.2583 138.1 72.4083 140.05C66.5583 142 59.6972 142.975 51.825 142.975ZM160.748 127.592C160.315 128.603 159.412 129.939 158.04 131.6C156.74 133.261 155.007 135.103 152.84 137.125C150.673 139.075 148.001 140.736 144.823 142.108C141.645 143.553 138.432 144.275 135.182 144.275C124.998 144.275 117.704 141.242 113.298 135.175C108.965 129.108 106.798 118.997 106.798 104.842V66.275L103.007 62.375V49.9167H142.332V111.667C142.259 114.917 142.801 117.336 143.957 118.925C145.112 120.442 147.207 121.2 150.24 121.2C150.673 121.2 151.07 121.2 151.432 121.2C151.793 121.128 152.154 121.056 152.515 120.983C152.876 120.839 153.165 120.731 153.382 120.658C153.67 120.586 153.995 120.478 154.357 120.333C154.718 120.117 155.007 119.936 155.223 119.792C155.44 119.647 155.729 119.467 156.09 119.25C156.451 118.961 156.704 118.744 156.848 118.6C157.065 118.456 157.354 118.239 157.715 117.95C158.148 117.589 158.473 117.336 158.69 117.192V66.275L152.84 62.375V49.9167H194.115V142H164.107L160.748 127.592ZM244.01 142H209.018V71.9083L202.518 67.9V55.6583L225.81 49.9167H234.585L237.727 75.7C240.688 58.0056 250.185 49.1583 266.218 49.1583C268.024 49.1583 269.902 49.4833 271.852 50.1333L268.168 88.7C266.652 87.3278 263.329 86.6417 258.202 86.6417C250.835 86.6417 246.104 88.5917 244.01 92.4917V142ZM322.138 180.242C316.504 180.242 310.149 178.942 303.071 176.342C295.993 173.814 291.407 171.394 289.313 169.083L296.138 154.242C297.943 155.614 300.868 156.878 304.913 158.033C308.957 159.189 312.424 159.767 315.313 159.767C318.202 159.767 320.693 159.369 322.788 158.575C324.954 157.853 326.616 156.914 327.771 155.758C328.927 154.675 329.866 153.303 330.588 151.642C331.31 150.053 331.743 148.608 331.888 147.308C332.104 146.008 332.249 144.564 332.321 142.975V133.767C326.182 140.122 318.707 143.3 309.896 143.3C297.979 143.3 289.241 139.219 283.679 131.058C278.118 122.897 275.338 111.558 275.338 97.0417C275.338 90.2528 276.096 84.0056 277.613 78.3C279.129 72.5222 281.332 67.4667 284.221 63.1333C287.182 58.7278 291.01 55.2972 295.704 52.8417C300.399 50.3139 305.707 49.05 311.629 49.05C320.585 49.05 328.349 51.0361 334.921 55.0083L336.763 49.9167H353.338L373.704 50.8917V61.075L367.204 65.625V137.992C367.204 166.158 352.182 180.242 322.138 180.242ZM325.604 123.583C327.771 123.583 330.01 122.969 332.321 121.742V64.65C330.588 64.2889 328.999 64.1083 327.554 64.1083C317.949 64.1806 313.11 71.5833 313.038 86.3167V103.108C313.038 107.731 313.652 111.703 314.879 115.025C317.046 120.731 320.621 123.583 325.604 123.583ZM430.951 85.9917C430.951 76.8194 430.482 70.3194 429.543 66.4917C428.604 62.6639 426.87 60.75 424.343 60.75C422.176 60.75 420.407 61.1472 419.034 61.9417C417.662 62.6639 416.651 63.8556 416.001 65.5167C415.351 67.1056 414.918 68.7667 414.701 70.5C414.557 72.1611 414.484 74.2917 414.484 76.8917V85.9917H430.951ZM422.284 144.275C414.195 144.275 407.154 143.047 401.159 140.592C395.237 138.136 390.543 134.706 387.076 130.3C383.682 125.894 381.19 120.947 379.601 115.458C378.012 109.897 377.218 103.722 377.218 96.9333C377.218 80.7556 381.334 68.5139 389.568 60.2083C397.801 51.9028 409.32 47.75 424.126 47.75C438.354 47.75 448.537 51.1083 454.676 57.825C460.815 64.4694 463.884 75.1944 463.884 90V102.025H414.376V104.083C414.376 108.344 414.809 111.847 415.676 114.592C416.615 117.336 417.951 119.358 419.684 120.658C421.418 121.958 423.187 122.825 424.993 123.258C426.798 123.692 429.001 123.908 431.601 123.908C434.129 123.908 436.837 123.583 439.726 122.933C442.687 122.283 445.648 121.272 448.609 119.9C451.643 118.528 454.17 116.903 456.193 115.025L462.584 125.967C459.912 130.3 455.976 133.947 450.776 136.908C445.648 139.797 440.701 141.747 435.934 142.758C431.168 143.769 426.618 144.275 422.284 144.275ZM510.612 142H475.62V71.9083L469.12 67.9V55.6583L492.412 49.9167H501.187L504.328 75.7C507.289 58.0056 516.787 49.1583 532.82 49.1583C534.625 49.1583 536.503 49.4833 538.453 50.1333L534.77 88.7C533.253 87.3278 529.931 86.6417 524.803 86.6417C517.437 86.6417 512.706 88.5917 510.612 92.4917V142ZM589.321 142V19.475L582.821 15.575V5.5L617.596 0.0833331H624.637V142H589.321ZM668.322 37.35L683.489 1.60001H711.98L686.089 37.35H668.322ZM687.714 85.9917C687.714 76.8194 687.244 70.3194 686.305 66.4917C685.367 62.6639 683.633 60.75 681.105 60.75C678.939 60.75 677.169 61.1472 675.797 61.9417C674.425 62.6639 673.414 63.8556 672.764 65.5167C672.114 67.1056 671.68 68.7667 671.464 70.5C671.319 72.1611 671.247 74.2917 671.247 76.8917V85.9917H687.714ZM679.047 144.275C670.958 144.275 663.917 143.047 657.922 140.592C652 138.136 647.305 134.706 643.839 130.3C640.444 125.894 637.953 120.947 636.364 115.458C634.775 109.897 633.98 103.722 633.98 96.9333C633.98 80.7556 638.097 68.5139 646.33 60.2083C654.564 51.9028 666.083 47.75 680.889 47.75C695.117 47.75 705.3 51.1083 711.439 57.825C717.578 64.4694 720.647 75.1944 720.647 90V102.025H671.139V104.083C671.139 108.344 671.572 111.847 672.439 114.592C673.378 117.336 674.714 119.358 676.447 120.658C678.18 121.958 679.95 122.825 681.755 123.258C683.561 123.692 685.764 123.908 688.364 123.908C690.892 123.908 693.6 123.583 696.489 122.933C699.45 122.283 702.411 121.272 705.372 119.9C708.405 118.528 710.933 116.903 712.955 115.025L719.347 125.967C716.675 130.3 712.739 133.947 707.539 136.908C702.411 139.797 697.464 141.747 692.697 142.758C687.93 143.769 683.38 144.275 679.047 144.275ZM774.091 180.242C768.458 180.242 762.102 178.942 755.024 176.342C747.947 173.814 743.36 171.394 741.266 169.083L748.091 154.242C749.897 155.614 752.822 156.878 756.866 158.033C760.91 159.189 764.377 159.767 767.266 159.767C770.155 159.767 772.647 159.369 774.741 158.575C776.908 157.853 778.569 156.914 779.724 155.758C780.88 154.675 781.819 153.303 782.541 151.642C783.263 150.053 783.697 148.608 783.841 147.308C784.058 146.008 784.202 144.564 784.274 142.975V133.767C778.135 140.122 770.66 143.3 761.849 143.3C749.933 143.3 741.194 139.219 735.633 131.058C730.072 122.897 727.291 111.558 727.291 97.0417C727.291 90.2528 728.049 84.0056 729.566 78.3C731.083 72.5222 733.285 67.4667 736.174 63.1333C739.135 58.7278 742.963 55.2972 747.658 52.8417C752.352 50.3139 757.66 49.05 763.583 49.05C772.538 49.05 780.302 51.0361 786.874 55.0083L788.716 49.9167H805.291L825.658 50.8917V61.075L819.158 65.625V137.992C819.158 166.158 804.135 180.242 774.091 180.242ZM777.558 123.583C779.724 123.583 781.963 122.969 784.274 121.742V64.65C782.541 64.2889 780.952 64.1083 779.508 64.1083C769.902 64.1806 765.063 71.5833 764.991 86.3167V103.108C764.991 107.731 765.605 111.703 766.833 115.025C768.999 120.731 772.574 123.583 777.558 123.583ZM887.237 127.592C886.804 128.603 885.901 129.939 884.529 131.6C883.229 133.261 881.496 135.103 879.329 137.125C877.162 139.075 874.49 140.736 871.313 142.108C868.135 143.553 864.921 144.275 861.671 144.275C851.487 144.275 844.193 141.242 839.787 135.175C835.454 129.108 833.288 118.997 833.288 104.842V66.275L829.496 62.375V49.9167H868.821V111.667C868.749 114.917 869.29 117.336 870.446 118.925C871.601 120.442 873.696 121.2 876.729 121.2C877.163 121.2 877.56 121.2 877.921 121.2C878.282 121.128 878.643 121.056 879.004 120.983C879.365 120.839 879.654 120.731 879.871 120.658C880.16 120.586 880.485 120.478 880.846 120.333C881.207 120.117 881.496 119.936 881.712 119.792C881.929 119.647 882.218 119.467 882.579 119.25C882.94 118.961 883.193 118.744 883.338 118.6C883.554 118.456 883.843 118.239 884.204 117.95C884.637 117.589 884.962 117.336 885.179 117.192V66.275L879.329 62.375V49.9167H920.604V142H890.596L887.237 127.592ZM970.499 142H935.508V71.9083L929.008 67.9V56.3083L952.299 49.9167H970.716V63.8917C971.077 63.3861 971.583 62.7361 972.233 61.9417C972.955 61.075 974.255 59.7389 976.133 57.9333C978.01 56.1278 979.924 54.5389 981.874 53.1667C983.897 51.7944 986.316 50.5667 989.133 49.4833C992.022 48.3278 994.874 47.75 997.691 47.75C1004.91 47.75 1010.44 49.1222 1014.27 51.8667C1018.09 54.6111 1020.8 59.0889 1022.39 65.3C1024.85 61.0389 1028.6 57.0667 1033.66 53.3833C1038.79 49.6278 1044.42 47.75 1050.56 47.75C1057.35 47.75 1062.62 48.9417 1066.37 51.325C1070.2 53.6361 1072.98 57.6083 1074.72 63.2417C1076.45 68.875 1077.32 76.8194 1077.32 87.075V142H1042.11V83.9333C1042.11 80.7556 1041.35 78.2639 1039.83 76.4583C1038.32 74.6528 1036 73.75 1032.9 73.75C1030.8 73.75 1027.95 75.4833 1024.34 78.95C1024.56 82.4167 1024.67 86.1722 1024.67 90.2167V142H988.916V83.9333C989.133 77.1444 986.244 73.75 980.249 73.75C979.816 73.75 979.383 73.7861 978.949 73.8583C978.588 73.9306 978.227 74.0028 977.866 74.075C977.577 74.1472 977.216 74.2917 976.783 74.5083C976.422 74.6528 976.097 74.7972 975.808 74.9417C975.519 75.0139 975.194 75.1944 974.833 75.4833C974.472 75.7 974.183 75.8806 973.966 76.025C973.749 76.1694 973.424 76.4222 972.991 76.7833C972.63 77.0722 972.341 77.2889 972.124 77.4333C971.98 77.5778 971.691 77.8306 971.258 78.1917C970.897 78.4806 970.644 78.6972 970.499 78.8417V142ZM1139.67 85.9917C1139.67 76.8194 1139.2 70.3194 1138.26 66.4917C1137.32 62.6639 1135.59 60.75 1133.06 60.75C1130.89 60.75 1129.12 61.1472 1127.75 61.9417C1126.38 62.6639 1125.37 63.8556 1124.72 65.5167C1124.07 67.1056 1123.63 68.7667 1123.42 70.5C1123.27 72.1611 1123.2 74.2917 1123.2 76.8917V85.9917H1139.67ZM1131 144.275C1122.91 144.275 1115.87 143.047 1109.88 140.592C1103.95 138.136 1099.26 134.706 1095.79 130.3C1092.4 125.894 1089.91 120.947 1088.32 115.458C1086.73 109.897 1085.93 103.722 1085.93 96.9333C1085.93 80.7556 1090.05 68.5139 1098.28 60.2083C1106.52 51.9028 1118.04 47.75 1132.84 47.75C1147.07 47.75 1157.25 51.1083 1163.39 57.825C1169.53 64.4694 1172.6 75.1944 1172.6 90V102.025H1123.09V104.083C1123.09 108.344 1123.53 111.847 1124.39 114.592C1125.33 117.336 1126.67 119.358 1128.4 120.658C1130.13 121.958 1131.9 122.825 1133.71 123.258C1135.51 123.692 1137.72 123.908 1140.32 123.908C1142.84 123.908 1145.55 123.583 1148.44 122.933C1151.4 122.283 1154.36 121.272 1157.33 119.9C1160.36 118.528 1162.89 116.903 1164.91 115.025L1171.3 125.967C1168.63 130.3 1164.69 133.947 1159.49 136.908C1154.36 139.797 1149.42 141.747 1144.65 142.758C1139.88 143.769 1135.33 144.275 1131 144.275Z" fill="white"/>
</svg>
