<svg width="1074" height="206" viewBox="0 0 1074 206" fill="none" xmlns="http://www.w3.org/2000/svg">
<path d="M50.5833 137.827C56.4211 137.827 60.6967 136.182 63.41 132.893C66.1233 129.604 67.48 125.699 67.48 121.177V112.543C67.48 107.199 65.7533 103.417 62.3 101.197C58.8467 98.8944 54.9411 97.7433 50.5833 97.7433H40.9633V137.827H50.5833ZM65.7533 54.4533C65.7533 49.52 64.3967 46.1078 61.6833 44.2167C58.97 42.2433 55.0644 41.2567 49.9667 41.2567H40.9633V76.9H50.9533C55.7222 76.9 59.3811 75.05 61.93 71.35C64.4789 67.5678 65.7533 62.9633 65.7533 57.5367V54.4533ZM58.97 163.11C52.5567 163.11 44.2522 162.946 34.0567 162.617C23.8611 162.288 16.5433 162.082 12.1033 162H0.263333V17.4533H21.6C26.78 17.4533 32.7 17.2889 39.36 16.96C46.02 16.5489 50.83 16.3433 53.79 16.3433C63.41 16.3433 71.5089 17.1244 78.0867 18.6867C84.7467 20.2489 89.9678 22.5922 93.75 25.7167C97.5322 28.8411 100.204 32.4589 101.767 36.57C103.411 40.6811 104.233 45.5733 104.233 51.2467C104.233 59.9622 102.219 67.4444 98.19 73.6933C94.1611 79.9422 88.3233 83.8478 80.6767 85.41C100.081 87.1367 109.783 98.5244 109.783 119.573C109.783 125.904 108.838 131.66 106.947 136.84C105.056 141.938 102.137 146.501 98.19 150.53C94.3256 154.477 89.0633 157.56 82.4033 159.78C75.7433 162 67.9322 163.11 58.97 163.11ZM182.975 145.597C182.482 146.748 181.454 148.269 179.892 150.16C178.412 152.051 176.438 154.148 173.972 156.45C171.505 158.67 168.463 160.561 164.845 162.123C161.227 163.768 157.568 164.59 153.868 164.59C142.275 164.59 133.97 161.137 128.955 154.23C124.022 147.323 121.555 135.812 121.555 119.697V75.79L117.238 71.35V57.1667H162.008V127.467C161.926 131.167 162.543 133.921 163.858 135.73C165.174 137.457 167.558 138.32 171.012 138.32C171.505 138.32 171.957 138.32 172.368 138.32C172.779 138.238 173.19 138.156 173.602 138.073C174.013 137.909 174.342 137.786 174.588 137.703C174.917 137.621 175.287 137.498 175.698 137.333C176.109 137.087 176.438 136.881 176.685 136.717C176.932 136.552 177.26 136.347 177.672 136.1C178.083 135.771 178.37 135.524 178.535 135.36C178.782 135.196 179.11 134.949 179.522 134.62C180.015 134.209 180.385 133.921 180.632 133.757V75.79L173.972 71.35V57.1667H220.962V162H186.798L182.975 145.597ZM277.765 162H237.929V82.2033L230.529 77.64V63.7033L257.045 57.1667H267.035L270.612 86.52C273.983 66.3756 284.795 56.3033 303.049 56.3033C305.104 56.3033 307.242 56.6733 309.462 57.4133L305.269 101.32C303.542 99.7578 299.76 98.9767 293.922 98.9767C285.535 98.9767 280.15 101.197 277.765 105.637V162ZM366.711 205.537C360.297 205.537 353.062 204.057 345.004 201.097C336.946 198.219 331.725 195.464 329.341 192.833L337.111 175.937C339.166 177.499 342.496 178.938 347.101 180.253C351.705 181.569 355.652 182.227 358.941 182.227C362.23 182.227 365.066 181.774 367.451 180.87C369.917 180.048 371.809 178.979 373.124 177.663C374.44 176.43 375.509 174.868 376.331 172.977C377.153 171.168 377.646 169.523 377.811 168.043C378.057 166.563 378.222 164.919 378.304 163.11V152.627C371.315 159.862 362.805 163.48 352.774 163.48C339.207 163.48 329.259 158.834 322.927 149.543C316.596 140.252 313.431 127.343 313.431 110.817C313.431 103.088 314.294 95.9756 316.021 89.48C317.747 82.9022 320.255 77.1467 323.544 72.2133C326.915 67.1978 331.273 63.2922 336.617 60.4967C341.962 57.6189 348.005 56.18 354.747 56.18C364.943 56.18 373.782 58.4411 381.264 62.9633L383.361 57.1667H402.231L425.417 58.2767V69.87L418.017 75.05V157.437C418.017 189.503 400.915 205.537 366.711 205.537ZM370.657 141.033C373.124 141.033 375.673 140.334 378.304 138.937V73.94C376.331 73.5289 374.522 73.3233 372.877 73.3233C361.942 73.4056 356.433 81.8333 356.351 98.6067V117.723C356.351 122.986 357.05 127.508 358.447 131.29C360.914 137.786 364.984 141.033 370.657 141.033ZM490.59 98.2367C490.59 87.7944 490.056 80.3944 488.987 76.0367C487.918 71.6789 485.945 69.5 483.067 69.5C480.6 69.5 478.586 69.9522 477.024 70.8567C475.462 71.6789 474.31 73.0356 473.57 74.9267C472.83 76.7356 472.337 78.6267 472.09 80.6C471.926 82.4911 471.844 84.9167 471.844 87.8767V98.2367H490.59ZM480.724 164.59C471.515 164.59 463.498 163.192 456.674 160.397C449.932 157.601 444.587 153.696 440.64 148.68C436.776 143.664 433.939 138.032 432.13 131.783C430.322 125.452 429.417 118.422 429.417 110.693C429.417 92.2756 434.104 78.3389 443.477 68.8833C452.85 59.4278 465.965 54.7 482.82 54.7C499.018 54.7 510.612 58.5233 517.6 66.17C524.589 73.7344 528.084 85.9444 528.084 102.8V116.49H471.72V118.833C471.72 123.684 472.214 127.672 473.2 130.797C474.269 133.921 475.79 136.223 477.764 137.703C479.737 139.183 481.752 140.17 483.807 140.663C485.863 141.157 488.37 141.403 491.33 141.403C494.208 141.403 497.292 141.033 500.58 140.293C503.952 139.553 507.323 138.402 510.694 136.84C514.147 135.278 517.025 133.428 519.327 131.29L526.604 143.747C523.562 148.68 519.08 152.832 513.16 156.203C507.323 159.492 501.69 161.712 496.264 162.863C490.837 164.014 485.657 164.59 480.724 164.59ZM581.281 162H541.444V82.2033L534.044 77.64V63.7033L560.561 57.1667H570.551L574.128 86.52C577.499 66.3756 588.311 56.3033 606.564 56.3033C608.62 56.3033 610.758 56.6733 612.978 57.4133L608.784 101.32C607.058 99.7578 603.275 98.9767 597.438 98.9767C589.051 98.9767 583.665 101.197 581.281 105.637V162ZM740.818 162C739.832 160.767 737.694 155.957 734.405 147.57C731.198 139.101 727.416 129.563 723.058 118.957C718.783 108.268 715.001 100.169 711.712 94.66V162H670.888V17.4533H711.712V86.6433L742.422 17.4533H783.492L746.738 85.2867C749.123 86.9311 752.288 91.4122 756.235 98.73C760.182 106.048 763.882 113.736 767.335 121.793C770.788 129.851 774.365 137.95 778.065 146.09C781.765 154.148 784.478 159.451 786.205 162H740.818ZM794.013 162V82.2033L786.613 77.64V64.4433L813.129 57.1667H833.726V162H794.013ZM811.896 45.82L791.669 25.47V21.1533L811.896 0.926664H816.583L837.673 21.1533V25.47L816.583 45.82H811.896ZM890.578 162H850.741V82.2033L843.341 77.64V64.4433L869.858 57.1667H890.824V73.0767L892.304 71.2267C893.291 69.9111 894.73 68.3489 896.621 66.54C898.594 64.7311 900.773 62.9633 903.158 61.2367C905.542 59.4278 908.379 57.9067 911.668 56.6733C915.039 55.3578 918.328 54.7 921.534 54.7C932.799 54.7 940.733 57.7833 945.338 63.95C950.024 70.1167 952.368 80.4356 952.368 94.9067C952.368 95.4 952.368 96.14 952.368 97.1267C952.286 98.1133 952.244 98.8944 952.244 99.47V162H911.544V95.8933C911.791 88.1644 908.502 84.3 901.678 84.3C901.184 84.3 900.691 84.3411 900.198 84.4233C899.787 84.5056 899.376 84.5878 898.964 84.67C898.636 84.7522 898.224 84.9167 897.731 85.1633C897.32 85.3278 896.95 85.4922 896.621 85.6567C896.292 85.7389 895.922 85.9444 895.511 86.2733C895.1 86.52 894.771 86.7256 894.524 86.89C894.278 87.0544 893.908 87.3422 893.414 87.7533C893.003 88.0822 892.674 88.3289 892.428 88.4933C892.263 88.6578 891.934 88.9456 891.441 89.3567C891.03 89.6856 890.742 89.9322 890.578 90.0967V162ZM1015.29 205.537C1008.88 205.537 1001.65 204.057 993.588 201.097C985.53 198.219 980.309 195.464 977.925 192.833L985.695 175.937C987.75 177.499 991.08 178.938 995.685 180.253C1000.29 181.569 1004.24 182.227 1007.52 182.227C1010.81 182.227 1013.65 181.774 1016.03 180.87C1018.5 180.048 1020.39 178.979 1021.71 177.663C1023.02 176.43 1024.09 174.868 1024.91 172.977C1025.74 171.168 1026.23 169.523 1026.39 168.043C1026.64 166.563 1026.81 164.919 1026.89 163.11V152.627C1019.9 159.862 1011.39 163.48 1001.36 163.48C987.791 163.48 977.843 158.834 971.511 149.543C965.18 140.252 962.015 127.343 962.015 110.817C962.015 103.088 962.878 95.9756 964.605 89.48C966.331 82.9022 968.839 77.1467 972.128 72.2133C975.499 67.1978 979.857 63.2922 985.201 60.4967C990.546 57.6189 996.589 56.18 1003.33 56.18C1013.53 56.18 1022.37 58.4411 1029.85 62.9633L1031.94 57.1667H1050.81L1074 58.2767V69.87L1066.6 75.05V157.437C1066.6 189.503 1049.5 205.537 1015.29 205.537ZM1019.24 141.033C1021.71 141.033 1024.26 140.334 1026.89 138.937V73.94C1024.91 73.5289 1023.11 73.3233 1021.46 73.3233C1010.53 73.4056 1005.02 81.8333 1004.93 98.6067V117.723C1004.93 122.986 1005.63 127.508 1007.03 131.29C1009.5 137.786 1013.57 141.033 1019.24 141.033Z" fill="white"/>
</svg>
