<svg width="1440" height="423" viewBox="0 0 1440 423" fill="none" xmlns="http://www.w3.org/2000/svg">
<mask id="path-1-outside-1_24_551" maskUnits="userSpaceOnUse" x="-15" y="-4" width="1488" height="466" fill="black">
<rect fill="white" x="-15" y="-4" width="1488" height="466"/>
<path d="M111.372 293.665C125.46 293.665 135.778 289.697 142.325 281.76C148.873 273.824 152.147 264.399 152.147 253.486V232.652C152.147 219.755 147.98 210.628 139.647 205.27C131.313 199.715 121.888 196.937 111.372 196.937H88.1575V293.665H111.372ZM147.98 92.4702C147.98 80.5652 144.706 72.3308 138.159 67.7672C131.611 63.0052 122.186 60.6242 109.884 60.6242H88.1575V146.638H112.265C123.773 146.638 132.603 142.174 138.754 133.245C144.905 124.118 147.98 113.006 147.98 99.9108V92.4702ZM131.611 354.679C116.134 354.679 96.0942 354.282 71.4904 353.488C46.8867 352.694 29.2276 352.198 18.513 352H-10.0591V3.18241H41.4302C53.9305 3.18241 68.2166 2.78557 84.2884 1.99191C100.36 0.999823 111.968 0.50378 119.111 0.50378C142.325 0.50378 161.87 2.38874 177.743 6.15866C193.815 9.9286 206.414 15.5835 215.541 23.1233C224.669 30.6632 231.117 39.3936 234.887 49.3144C238.855 59.2353 240.84 71.0411 240.84 84.7319C240.84 105.764 235.978 123.82 226.256 138.9C216.533 153.98 202.446 163.404 183.993 167.174C230.82 171.341 254.233 198.822 254.233 249.617C254.233 264.895 251.951 278.784 247.387 291.284C242.824 303.586 235.78 314.598 226.256 324.321C216.93 333.845 204.232 341.285 188.16 346.643C172.088 352 153.238 354.679 131.611 354.679ZM430.857 312.416C429.667 315.194 427.187 318.864 423.417 323.428C419.845 327.992 415.083 333.051 409.131 338.607C403.178 343.964 395.837 348.528 387.106 352.298C378.376 356.266 369.547 358.25 360.618 358.25C332.641 358.25 312.601 349.917 300.497 333.25C288.592 316.583 282.64 288.804 282.64 249.914V143.959L272.223 133.245V99.018H380.261V268.665C380.063 277.594 381.551 284.24 384.725 288.606C387.9 292.772 393.654 294.856 401.988 294.856C403.178 294.856 404.27 294.856 405.262 294.856C406.254 294.657 407.246 294.459 408.238 294.261C409.23 293.864 410.024 293.566 410.619 293.368C411.413 293.169 412.305 292.872 413.298 292.475C414.29 291.88 415.083 291.384 415.679 290.987C416.274 290.59 417.067 290.094 418.06 289.499C419.052 288.705 419.746 288.11 420.143 287.713C420.738 287.316 421.532 286.721 422.524 285.927C423.714 284.935 424.607 284.24 425.203 283.844V143.959L409.131 133.245V99.018H522.526V352H440.084L430.857 312.416ZM659.604 352H563.471V159.436L545.613 148.424V114.792L609.603 99.018H633.711L642.342 169.853C650.477 121.241 676.569 96.9346 720.617 96.9346C725.578 96.9346 730.737 97.8275 736.094 99.6132L725.975 205.568C721.808 201.798 712.681 199.913 698.593 199.913C678.354 199.913 665.358 205.27 659.604 215.985V352ZM874.246 457.062C858.769 457.062 841.308 453.49 821.864 446.347C802.419 439.403 789.819 432.756 784.065 426.406L802.816 385.632C807.776 389.402 815.812 392.874 826.923 396.049C838.035 399.223 847.559 400.811 855.495 400.811C863.432 400.811 870.277 399.719 876.032 397.537C881.984 395.553 886.548 392.973 889.722 389.798C892.897 386.822 895.476 383.052 897.461 378.489C899.445 374.124 900.635 370.155 901.032 366.584C901.627 363.012 902.024 359.044 902.223 354.679V329.38C885.357 346.841 864.821 355.572 840.614 355.572C807.875 355.572 783.867 344.361 768.589 321.94C753.31 299.519 745.671 268.367 745.671 228.485C745.671 209.834 747.755 192.671 751.921 176.996C756.088 161.123 762.14 147.233 770.077 135.328C778.212 123.225 788.728 113.8 801.625 107.054C814.522 100.109 829.106 96.637 845.376 96.637C869.98 96.637 891.31 102.093 909.366 113.006L914.425 99.018H959.962L1015.92 101.697V129.673L998.058 142.174V340.988C998.058 418.371 956.787 457.062 874.246 457.062ZM883.77 301.404C889.722 301.404 895.873 299.717 902.223 296.344V139.495C897.461 138.503 893.095 138.007 889.127 138.007C862.738 138.205 849.444 158.543 849.245 199.02V245.152C849.245 257.851 850.932 268.764 854.305 277.891C860.257 293.566 870.079 301.404 883.77 301.404ZM1173.19 198.127C1173.19 172.928 1171.9 155.071 1169.32 144.555C1166.74 134.039 1161.98 128.781 1155.03 128.781C1149.08 128.781 1144.22 129.872 1140.45 132.054C1136.68 134.039 1133.9 137.312 1132.12 141.876C1130.33 146.241 1129.14 150.805 1128.55 155.567C1128.15 160.13 1127.95 165.984 1127.95 173.127V198.127H1173.19ZM1149.38 358.25C1127.16 358.25 1107.81 354.877 1091.34 348.131C1075.07 341.385 1062.18 331.96 1052.65 319.856C1043.33 307.753 1036.48 294.161 1032.12 279.082C1027.75 263.804 1025.57 246.839 1025.57 228.188C1025.57 183.742 1036.88 150.11 1059.5 127.292C1082.12 104.474 1113.76 93.0654 1154.44 93.0654C1193.53 93.0654 1221.5 102.292 1238.37 120.745C1255.24 138.999 1263.67 168.464 1263.67 209.14V242.176H1127.65V247.831C1127.65 259.538 1128.84 269.161 1131.22 276.701C1133.8 284.24 1137.47 289.796 1142.24 293.368C1147 296.939 1151.86 299.32 1156.82 300.511C1161.78 301.701 1167.83 302.296 1174.98 302.296C1181.92 302.296 1189.36 301.404 1197.3 299.618C1205.43 297.832 1213.57 295.054 1221.7 291.284C1230.04 287.514 1236.98 283.05 1242.54 277.891L1260.1 307.951C1252.76 319.856 1241.94 329.876 1227.66 338.012C1213.57 345.948 1199.98 351.306 1186.88 354.083C1173.79 356.861 1161.29 358.25 1149.38 358.25ZM1392.04 352H1295.91V159.436L1278.05 148.424V114.792L1342.04 99.018H1366.15L1374.78 169.853C1382.92 121.241 1409.01 96.9346 1453.06 96.9346C1458.02 96.9346 1463.18 97.8275 1468.53 99.6132L1458.41 205.568C1454.25 201.798 1445.12 199.913 1431.03 199.913C1410.79 199.913 1397.8 205.27 1392.04 215.985V352Z"/>
</mask>
<path d="M142.325 281.76L145.411 284.306L142.325 281.76ZM139.647 205.27L137.428 208.599L137.456 208.617L137.484 208.635L139.647 205.27ZM88.1575 196.937V192.937H84.1575V196.937H88.1575ZM88.1575 293.665H84.1575V297.665H88.1575V293.665ZM138.159 67.7672L135.806 71.0022L135.838 71.0258L135.871 71.0488L138.159 67.7672ZM88.1575 60.6242V56.6242H84.1575V60.6242H88.1575ZM88.1575 146.638H84.1575V150.638H88.1575V146.638ZM138.754 133.245L142.048 135.514L142.06 135.497L142.071 135.48L138.754 133.245ZM71.4904 353.488L71.3615 357.486L71.4904 353.488ZM18.513 352L18.5871 348.001L18.5501 348H18.513V352ZM-10.0591 352H-14.0591V356H-10.0591V352ZM-10.0591 3.1824V-0.817596H-14.0591V3.1824H-10.0591ZM84.2884 1.99191L84.4856 5.98705L84.5102 5.98582L84.5348 5.98431L84.2884 1.99191ZM177.743 6.15866L176.819 10.0504L176.829 10.053L177.743 6.15866ZM215.541 23.1233L218.089 20.0395L215.541 23.1233ZM234.887 49.3144L231.148 50.7353L231.16 50.7678L231.173 50.8L234.887 49.3144ZM183.993 167.174L183.192 163.255L183.639 171.159L183.993 167.174ZM247.387 291.284L251.138 292.676L251.141 292.666L251.145 292.656L247.387 291.284ZM226.256 324.321L223.398 321.522L223.398 321.522L226.256 324.321ZM188.16 346.643L186.895 342.848L188.16 346.643ZM111.372 297.665C126.188 297.665 137.85 293.471 145.411 284.306L139.24 279.215C133.706 285.923 124.731 289.665 111.372 289.665V297.665ZM145.411 284.306C152.587 275.607 156.147 265.267 156.147 253.486H148.147C148.147 263.531 145.159 272.04 139.24 279.215L145.411 284.306ZM156.147 253.486V232.652H148.147V253.486H156.147ZM156.147 232.652C156.147 218.856 151.629 208.218 141.81 201.906L137.484 208.635C144.331 213.037 148.147 220.654 148.147 232.652H156.147ZM141.866 201.942C132.841 195.926 122.637 192.937 111.372 192.937V200.937C121.14 200.937 129.785 203.504 137.428 208.599L141.866 201.942ZM111.372 192.937H88.1575V200.937H111.372V192.937ZM84.1575 196.937V293.665H92.1575V196.937H84.1575ZM88.1575 297.665H111.372V289.665H88.1575V297.665ZM151.98 92.4702C151.98 79.934 148.523 70.115 140.446 64.4857L135.871 71.0488C140.89 74.5467 143.98 81.1963 143.98 92.4702H151.98ZM140.511 64.5323C133.008 59.0751 122.618 56.6242 109.884 56.6242V64.6242C121.754 64.6242 130.214 66.9353 135.806 71.0022L140.511 64.5323ZM109.884 56.6242H88.1575V64.6242H109.884V56.6242ZM84.1575 60.6242V146.638H92.1575V60.6242H84.1575ZM88.1575 150.638H112.265V142.638H88.1575V150.638ZM112.265 150.638C124.994 150.638 135.098 145.603 142.048 135.514L135.46 130.976C130.108 138.744 122.553 142.638 112.265 142.638V150.638ZM142.071 135.48C148.746 125.576 151.98 113.649 151.98 99.9108H143.98C143.98 112.364 141.064 122.66 135.437 131.01L142.071 135.48ZM151.98 99.9108V92.4702H143.98V99.9108H151.98ZM131.611 350.679C116.195 350.679 96.202 350.283 71.6194 349.49L71.3615 357.486C95.9864 358.28 116.074 358.679 131.611 358.679V350.679ZM71.6194 349.49C47.0146 348.697 29.3315 348.2 18.5871 348.001L18.439 355.999C29.1236 356.197 46.7588 356.692 71.3615 357.486L71.6194 349.49ZM18.513 348H-10.0591V356H18.513V348ZM-6.05906 352V3.1824H-14.0591V352H-6.05906ZM-10.0591 7.1824H41.4302V-0.817596H-10.0591V7.1824ZM41.4302 7.1824C54.0118 7.1824 68.3657 6.78308 84.4856 5.98705L84.0911 -2.00322C68.0674 -1.21193 53.8492 -0.817596 41.4302 -0.817596V7.1824ZM84.5348 5.98431C100.6 4.99263 112.101 4.50378 119.111 4.50378V-3.49622C111.834 -3.49622 100.12 -2.99298 84.0419 -2.00049L84.5348 5.98431ZM119.111 4.50378C142.133 4.50378 161.346 6.37556 176.819 10.0504L178.667 2.26692C162.394 -1.59808 142.517 -3.49622 119.111 -3.49622V4.50378ZM176.829 10.053C192.524 13.7344 204.491 19.1831 212.994 26.2072L218.089 20.0395C208.337 11.9839 195.106 6.12282 178.656 2.26436L176.829 10.053ZM212.994 26.2072C221.65 33.3575 227.652 41.5351 231.148 50.7353L238.626 47.8936C234.582 37.252 227.688 27.9689 218.089 20.0395L212.994 26.2072ZM231.173 50.8C234.908 60.136 236.84 71.4131 236.84 84.7319H244.84C244.84 70.6691 242.803 58.3345 238.601 47.8289L231.173 50.8ZM236.84 84.7319C236.84 105.13 232.132 122.404 222.894 136.732L229.618 141.067C239.824 125.237 244.84 106.398 244.84 84.7319H236.84ZM222.894 136.732C213.787 150.858 200.649 159.689 183.192 163.255L184.794 171.093C204.243 167.12 219.28 157.101 229.618 141.067L222.894 136.732ZM183.639 171.159C206.335 173.178 222.789 180.781 233.628 193.504C244.508 206.275 250.233 224.787 250.233 249.617H258.233C258.233 223.652 252.25 203.026 239.718 188.316C227.144 173.558 208.477 165.337 184.348 163.19L183.639 171.159ZM250.233 249.617C250.233 264.495 248.011 277.912 243.63 289.913L251.145 292.656C255.891 279.656 258.233 265.294 258.233 249.617H250.233ZM243.637 289.893C239.276 301.648 232.544 312.185 223.398 321.522L229.113 327.12C239.016 317.011 246.371 305.524 251.138 292.676L243.637 289.893ZM223.398 321.522C214.621 330.486 202.523 337.639 186.895 342.848L189.425 350.437C205.94 344.932 219.24 337.203 229.114 327.119L223.398 321.522ZM186.895 342.848C171.326 348.038 152.921 350.679 131.611 350.679V358.679C153.555 358.679 172.85 355.962 189.425 350.437L186.895 342.848ZM430.857 312.416L434.753 311.508L431.985 299.631L427.181 310.84L430.857 312.416ZM423.417 323.428L420.333 320.88L420.299 320.921L420.267 320.963L423.417 323.428ZM409.131 338.607L411.807 341.58L411.834 341.556L411.86 341.531L409.131 338.607ZM387.106 352.298L385.521 348.625L385.486 348.64L385.451 348.656L387.106 352.298ZM300.497 333.25L297.242 335.575L297.251 335.587L297.261 335.6L300.497 333.25ZM282.64 143.959H286.64V142.336L285.508 141.171L282.64 143.959ZM272.223 133.245H268.223V134.869L269.355 136.033L272.223 133.245ZM272.223 99.0179V95.0179H268.223V99.0179H272.223ZM380.261 99.0179H384.261V95.0179H380.261V99.0179ZM380.261 268.665L384.26 268.754L384.261 268.709V268.665H380.261ZM384.725 288.606L381.491 290.958L381.517 290.994L381.544 291.03L384.725 288.606ZM405.262 294.856V298.856H405.658L406.046 298.778L405.262 294.856ZM408.238 294.261L409.022 298.183L409.382 298.111L409.723 297.974L408.238 294.261ZM410.619 293.368L409.649 289.487L409.5 289.524L409.354 289.573L410.619 293.368ZM413.298 292.475L414.783 296.189L415.081 296.07L415.356 295.905L413.298 292.475ZM415.679 290.987L413.46 287.658L413.46 287.659L415.679 290.987ZM418.06 289.499L420.118 292.929L420.348 292.79L420.558 292.622L418.06 289.499ZM420.143 287.713L417.924 284.385L417.595 284.604L417.315 284.884L420.143 287.713ZM422.524 285.927L425.023 289.051L425.054 289.026L425.085 289L422.524 285.927ZM425.203 283.844L427.421 287.172L429.203 285.984V283.844H425.203ZM425.203 143.959H429.203V141.819L427.421 140.631L425.203 143.959ZM409.131 133.245H405.131V135.386L406.912 136.573L409.131 133.245ZM409.131 99.0179V95.0179H405.131V99.0179H409.131ZM522.526 99.0179H526.526V95.0179H522.526V99.0179ZM522.526 352V356H526.526V352H522.526ZM440.084 352L436.188 352.908L436.909 356H440.084V352ZM427.181 310.84C426.223 313.074 424.046 316.386 420.333 320.88L426.501 325.975C430.328 321.342 433.111 317.313 434.534 313.991L427.181 310.84ZM420.267 320.963C416.863 325.312 412.258 330.217 406.402 335.683L411.86 341.531C417.909 335.886 422.828 330.671 426.567 325.893L420.267 320.963ZM406.455 335.634C400.879 340.652 393.925 344.996 385.521 348.625L388.692 355.97C397.749 352.059 405.477 347.277 411.807 341.58L406.455 335.634ZM385.451 348.656C377.202 352.406 368.934 354.25 360.618 354.25V362.25C370.159 362.25 379.551 360.126 388.762 355.939L385.451 348.656ZM360.618 354.25C333.425 354.25 314.834 346.184 303.734 330.899L297.261 335.6C310.368 353.649 331.857 362.25 360.618 362.25V354.25ZM303.752 330.925C292.604 315.317 286.64 288.61 286.64 249.914H278.64C278.64 288.998 284.581 317.848 297.242 335.575L303.752 330.925ZM286.64 249.914V143.959H278.64V249.914H286.64ZM285.508 141.171L275.091 130.457L269.355 136.033L279.772 146.748L285.508 141.171ZM276.223 133.245V99.0179H268.223V133.245H276.223ZM272.223 103.018H380.261V95.0179H272.223V103.018ZM376.261 99.0179V268.665H384.261V99.0179H376.261ZM376.262 268.576C376.056 277.856 377.56 285.554 381.491 290.958L387.96 286.253C385.542 282.927 384.069 277.331 384.26 268.754L376.262 268.576ZM381.544 291.03C385.834 296.661 393.15 298.856 401.988 298.856V290.856C394.159 290.856 389.966 288.884 387.907 286.181L381.544 291.03ZM401.988 298.856C401.99 298.856 401.992 298.856 401.995 298.856C401.997 298.856 401.999 298.856 402.002 298.856C402.004 298.856 402.006 298.856 402.009 298.856C402.011 298.856 402.013 298.856 402.016 298.856C402.018 298.856 402.02 298.856 402.023 298.856C402.025 298.856 402.027 298.856 402.03 298.856C402.032 298.856 402.034 298.856 402.037 298.856C402.039 298.856 402.041 298.856 402.043 298.856C402.046 298.856 402.048 298.856 402.05 298.856C402.053 298.856 402.055 298.856 402.057 298.856C402.06 298.856 402.062 298.856 402.064 298.856C402.067 298.856 402.069 298.856 402.071 298.856C402.074 298.856 402.076 298.856 402.078 298.856C402.081 298.856 402.083 298.856 402.085 298.856C402.088 298.856 402.09 298.856 402.092 298.856C402.094 298.856 402.097 298.856 402.099 298.856C402.101 298.856 402.104 298.856 402.106 298.856C402.108 298.856 402.111 298.856 402.113 298.856C402.115 298.856 402.118 298.856 402.12 298.856C402.122 298.856 402.125 298.856 402.127 298.856C402.129 298.856 402.131 298.856 402.134 298.856C402.136 298.856 402.138 298.856 402.141 298.856C402.143 298.856 402.145 298.856 402.148 298.856C402.15 298.856 402.152 298.856 402.155 298.856C402.157 298.856 402.159 298.856 402.161 298.856C402.164 298.856 402.166 298.856 402.168 298.856C402.171 298.856 402.173 298.856 402.175 298.856C402.178 298.856 402.18 298.856 402.182 298.856C402.185 298.856 402.187 298.856 402.189 298.856C402.191 298.856 402.194 298.856 402.196 298.856C402.198 298.856 402.201 298.856 402.203 298.856C402.205 298.856 402.208 298.856 402.21 298.856C402.212 298.856 402.214 298.856 402.217 298.856C402.219 298.856 402.221 298.856 402.224 298.856C402.226 298.856 402.228 298.856 402.231 298.856C402.233 298.856 402.235 298.856 402.237 298.856C402.24 298.856 402.242 298.856 402.244 298.856C402.247 298.856 402.249 298.856 402.251 298.856C402.254 298.856 402.256 298.856 402.258 298.856C402.26 298.856 402.263 298.856 402.265 298.856C402.267 298.856 402.27 298.856 402.272 298.856C402.274 298.856 402.276 298.856 402.279 298.856C402.281 298.856 402.283 298.856 402.286 298.856C402.288 298.856 402.29 298.856 402.292 298.856C402.295 298.856 402.297 298.856 402.299 298.856C402.302 298.856 402.304 298.856 402.306 298.856C402.309 298.856 402.311 298.856 402.313 298.856C402.315 298.856 402.318 298.856 402.32 298.856C402.322 298.856 402.325 298.856 402.327 298.856C402.329 298.856 402.331 298.856 402.334 298.856C402.336 298.856 402.338 298.856 402.341 298.856C402.343 298.856 402.345 298.856 402.347 298.856C402.35 298.856 402.352 298.856 402.354 298.856C402.357 298.856 402.359 298.856 402.361 298.856C402.363 298.856 402.366 298.856 402.368 298.856C402.37 298.856 402.373 298.856 402.375 298.856C402.377 298.856 402.379 298.856 402.382 298.856C402.384 298.856 402.386 298.856 402.389 298.856C402.391 298.856 402.393 298.856 402.395 298.856C402.398 298.856 402.4 298.856 402.402 298.856C402.405 298.856 402.407 298.856 402.409 298.856C402.411 298.856 402.414 298.856 402.416 298.856C402.418 298.856 402.42 298.856 402.423 298.856C402.425 298.856 402.427 298.856 402.43 298.856C402.432 298.856 402.434 298.856 402.436 298.856C402.439 298.856 402.441 298.856 402.443 298.856C402.445 298.856 402.448 298.856 402.45 298.856C402.452 298.856 402.455 298.856 402.457 298.856C402.459 298.856 402.461 298.856 402.464 298.856C402.466 298.856 402.468 298.856 402.47 298.856C402.473 298.856 402.475 298.856 402.477 298.856C402.48 298.856 402.482 298.856 402.484 298.856C402.486 298.856 402.489 298.856 402.491 298.856C402.493 298.856 402.495 298.856 402.498 298.856C402.5 298.856 402.502 298.856 402.505 298.856C402.507 298.856 402.509 298.856 402.511 298.856C402.514 298.856 402.516 298.856 402.518 298.856C402.52 298.856 402.523 298.856 402.525 298.856C402.527 298.856 402.529 298.856 402.532 298.856C402.534 298.856 402.536 298.856 402.539 298.856C402.541 298.856 402.543 298.856 402.545 298.856C402.548 298.856 402.55 298.856 402.552 298.856C402.554 298.856 402.557 298.856 402.559 298.856C402.561 298.856 402.563 298.856 402.566 298.856C402.568 298.856 402.57 298.856 402.572 298.856C402.575 298.856 402.577 298.856 402.579 298.856C402.582 298.856 402.584 298.856 402.586 298.856C402.588 298.856 402.591 298.856 402.593 298.856C402.595 298.856 402.597 298.856 402.6 298.856C402.602 298.856 402.604 298.856 402.606 298.856C402.609 298.856 402.611 298.856 402.613 298.856C402.615 298.856 402.618 298.856 402.62 298.856C402.622 298.856 402.624 298.856 402.627 298.856C402.629 298.856 402.631 298.856 402.633 298.856C402.636 298.856 402.638 298.856 402.64 298.856C402.642 298.856 402.645 298.856 402.647 298.856C402.649 298.856 402.651 298.856 402.654 298.856C402.656 298.856 402.658 298.856 402.66 298.856C402.663 298.856 402.665 298.856 402.667 298.856C402.669 298.856 402.672 298.856 402.674 298.856C402.676 298.856 402.678 298.856 402.681 298.856C402.683 298.856 402.685 298.856 402.687 298.856C402.69 298.856 402.692 298.856 402.694 298.856C402.696 298.856 402.699 298.856 402.701 298.856C402.703 298.856 402.705 298.856 402.708 298.856C402.71 298.856 402.712 298.856 402.714 298.856C402.717 298.856 402.719 298.856 402.721 298.856C402.723 298.856 402.726 298.856 402.728 298.856C402.73 298.856 402.732 298.856 402.735 298.856C402.737 298.856 402.739 298.856 402.741 298.856C402.744 298.856 402.746 298.856 402.748 298.856C402.75 298.856 402.753 298.856 402.755 298.856C402.757 298.856 402.759 298.856 402.762 298.856C402.764 298.856 402.766 298.856 402.768 298.856C402.77 298.856 402.773 298.856 402.775 298.856C402.777 298.856 402.779 298.856 402.782 298.856C402.784 298.856 402.786 298.856 402.788 298.856C402.791 298.856 402.793 298.856 402.795 298.856C402.797 298.856 402.8 298.856 402.802 298.856C402.804 298.856 402.806 298.856 402.809 298.856C402.811 298.856 402.813 298.856 402.815 298.856C402.817 298.856 402.82 298.856 402.822 298.856C402.824 298.856 402.826 298.856 402.829 298.856C402.831 298.856 402.833 298.856 402.835 298.856C402.838 298.856 402.84 298.856 402.842 298.856C402.844 298.856 402.846 298.856 402.849 298.856C402.851 298.856 402.853 298.856 402.855 298.856C402.858 298.856 402.86 298.856 402.862 298.856C402.864 298.856 402.866 298.856 402.869 298.856C402.871 298.856 402.873 298.856 402.875 298.856C402.878 298.856 402.88 298.856 402.882 298.856C402.884 298.856 402.887 298.856 402.889 298.856C402.891 298.856 402.893 298.856 402.895 298.856C402.898 298.856 402.9 298.856 402.902 298.856C402.904 298.856 402.907 298.856 402.909 298.856C402.911 298.856 402.913 298.856 402.915 298.856C402.918 298.856 402.92 298.856 402.922 298.856C402.924 298.856 402.927 298.856 402.929 298.856C402.931 298.856 402.933 298.856 402.935 298.856C402.938 298.856 402.94 298.856 402.942 298.856C402.944 298.856 402.947 298.856 402.949 298.856C402.951 298.856 402.953 298.856 402.955 298.856C402.958 298.856 402.96 298.856 402.962 298.856C402.964 298.856 402.966 298.856 402.969 298.856C402.971 298.856 402.973 298.856 402.975 298.856C402.978 298.856 402.98 298.856 402.982 298.856C402.984 298.856 402.986 298.856 402.989 298.856C402.991 298.856 402.993 298.856 402.995 298.856C402.997 298.856 403 298.856 403.002 298.856C403.004 298.856 403.006 298.856 403.009 298.856C403.011 298.856 403.013 298.856 403.015 298.856C403.017 298.856 403.02 298.856 403.022 298.856C403.024 298.856 403.026 298.856 403.028 298.856C403.031 298.856 403.033 298.856 403.035 298.856C403.037 298.856 403.039 298.856 403.042 298.856C403.044 298.856 403.046 298.856 403.048 298.856C403.051 298.856 403.053 298.856 403.055 298.856C403.057 298.856 403.059 298.856 403.062 298.856C403.064 298.856 403.066 298.856 403.068 298.856C403.07 298.856 403.073 298.856 403.075 298.856C403.077 298.856 403.079 298.856 403.081 298.856C403.084 298.856 403.086 298.856 403.088 298.856C403.09 298.856 403.092 298.856 403.095 298.856C403.097 298.856 403.099 298.856 403.101 298.856C403.103 298.856 403.106 298.856 403.108 298.856C403.11 298.856 403.112 298.856 403.114 298.856C403.117 298.856 403.119 298.856 403.121 298.856C403.123 298.856 403.125 298.856 403.128 298.856C403.13 298.856 403.132 298.856 403.134 298.856C403.136 298.856 403.139 298.856 403.141 298.856C403.143 298.856 403.145 298.856 403.147 298.856C403.15 298.856 403.152 298.856 403.154 298.856C403.156 298.856 403.158 298.856 403.161 298.856C403.163 298.856 403.165 298.856 403.167 298.856C403.169 298.856 403.172 298.856 403.174 298.856C403.176 298.856 403.178 298.856 403.18 298.856C403.182 298.856 403.185 298.856 403.187 298.856C403.189 298.856 403.191 298.856 403.193 298.856C403.196 298.856 403.198 298.856 403.2 298.856C403.202 298.856 403.204 298.856 403.207 298.856C403.209 298.856 403.211 298.856 403.213 298.856C403.215 298.856 403.218 298.856 403.22 298.856C403.222 298.856 403.224 298.856 403.226 298.856C403.228 298.856 403.231 298.856 403.233 298.856C403.235 298.856 403.237 298.856 403.239 298.856C403.242 298.856 403.244 298.856 403.246 298.856C403.248 298.856 403.25 298.856 403.253 298.856C403.255 298.856 403.257 298.856 403.259 298.856C403.261 298.856 403.263 298.856 403.266 298.856C403.268 298.856 403.27 298.856 403.272 298.856C403.274 298.856 403.277 298.856 403.279 298.856C403.281 298.856 403.283 298.856 403.285 298.856C403.287 298.856 403.29 298.856 403.292 298.856C403.294 298.856 403.296 298.856 403.298 298.856C403.3 298.856 403.303 298.856 403.305 298.856C403.307 298.856 403.309 298.856 403.311 298.856C403.314 298.856 403.316 298.856 403.318 298.856C403.32 298.856 403.322 298.856 403.324 298.856C403.327 298.856 403.329 298.856 403.331 298.856C403.333 298.856 403.335 298.856 403.337 298.856C403.34 298.856 403.342 298.856 403.344 298.856C403.346 298.856 403.348 298.856 403.351 298.856C403.353 298.856 403.355 298.856 403.357 298.856C403.359 298.856 403.361 298.856 403.364 298.856C403.366 298.856 403.368 298.856 403.37 298.856C403.372 298.856 403.374 298.856 403.377 298.856C403.379 298.856 403.381 298.856 403.383 298.856C403.385 298.856 403.387 298.856 403.39 298.856C403.392 298.856 403.394 298.856 403.396 298.856C403.398 298.856 403.4 298.856 403.403 298.856C403.405 298.856 403.407 298.856 403.409 298.856C403.411 298.856 403.413 298.856 403.416 298.856C403.418 298.856 403.42 298.856 403.422 298.856C403.424 298.856 403.426 298.856 403.429 298.856C403.431 298.856 403.433 298.856 403.435 298.856C403.437 298.856 403.439 298.856 403.442 298.856C403.444 298.856 403.446 298.856 403.448 298.856C403.45 298.856 403.452 298.856 403.454 298.856C403.457 298.856 403.459 298.856 403.461 298.856C403.463 298.856 403.465 298.856 403.467 298.856C403.47 298.856 403.472 298.856 403.474 298.856C403.476 298.856 403.478 298.856 403.48 298.856C403.483 298.856 403.485 298.856 403.487 298.856C403.489 298.856 403.491 298.856 403.493 298.856C403.495 298.856 403.498 298.856 403.5 298.856C403.502 298.856 403.504 298.856 403.506 298.856C403.508 298.856 403.511 298.856 403.513 298.856C403.515 298.856 403.517 298.856 403.519 298.856C403.521 298.856 403.523 298.856 403.526 298.856C403.528 298.856 403.53 298.856 403.532 298.856C403.534 298.856 403.536 298.856 403.539 298.856C403.541 298.856 403.543 298.856 403.545 298.856C403.547 298.856 403.549 298.856 403.551 298.856C403.554 298.856 403.556 298.856 403.558 298.856C403.56 298.856 403.562 298.856 403.564 298.856C403.566 298.856 403.569 298.856 403.571 298.856C403.573 298.856 403.575 298.856 403.577 298.856C403.579 298.856 403.582 298.856 403.584 298.856C403.586 298.856 403.588 298.856 403.59 298.856C403.592 298.856 403.594 298.856 403.597 298.856C403.599 298.856 403.601 298.856 403.603 298.856C403.605 298.856 403.607 298.856 403.609 298.856C403.612 298.856 403.614 298.856 403.616 298.856C403.618 298.856 403.62 298.856 403.622 298.856C403.624 298.856 403.626 298.856 403.629 298.856C403.631 298.856 403.633 298.856 403.635 298.856C403.637 298.856 403.639 298.856 403.641 298.856C403.644 298.856 403.646 298.856 403.648 298.856C403.65 298.856 403.652 298.856 403.654 298.856C403.656 298.856 403.659 298.856 403.661 298.856C403.663 298.856 403.665 298.856 403.667 298.856C403.669 298.856 403.671 298.856 403.674 298.856C403.676 298.856 403.678 298.856 403.68 298.856C403.682 298.856 403.684 298.856 403.686 298.856C403.688 298.856 403.691 298.856 403.693 298.856C403.695 298.856 403.697 298.856 403.699 298.856C403.701 298.856 403.703 298.856 403.706 298.856C403.708 298.856 403.71 298.856 403.712 298.856C403.714 298.856 403.716 298.856 403.718 298.856C403.72 298.856 403.723 298.856 403.725 298.856C403.727 298.856 403.729 298.856 403.731 298.856C403.733 298.856 403.735 298.856 403.737 298.856C403.74 298.856 403.742 298.856 403.744 298.856C403.746 298.856 403.748 298.856 403.75 298.856C403.752 298.856 403.754 298.856 403.757 298.856C403.759 298.856 403.761 298.856 403.763 298.856C403.765 298.856 403.767 298.856 403.769 298.856C403.771 298.856 403.774 298.856 403.776 298.856C403.778 298.856 403.78 298.856 403.782 298.856C403.784 298.856 403.786 298.856 403.788 298.856C403.791 298.856 403.793 298.856 403.795 298.856C403.797 298.856 403.799 298.856 403.801 298.856C403.803 298.856 403.805 298.856 403.807 298.856C403.81 298.856 403.812 298.856 403.814 298.856C403.816 298.856 403.818 298.856 403.82 298.856C403.822 298.856 403.824 298.856 403.827 298.856C403.829 298.856 403.831 298.856 403.833 298.856C403.835 298.856 403.837 298.856 403.839 298.856C403.841 298.856 403.843 298.856 403.846 298.856C403.848 298.856 403.85 298.856 403.852 298.856C403.854 298.856 403.856 298.856 403.858 298.856C403.86 298.856 403.862 298.856 403.865 298.856C403.867 298.856 403.869 298.856 403.871 298.856C403.873 298.856 403.875 298.856 403.877 298.856C403.879 298.856 403.882 298.856 403.884 298.856C403.886 298.856 403.888 298.856 403.89 298.856C403.892 298.856 403.894 298.856 403.896 298.856C403.898 298.856 403.9 298.856 403.903 298.856C403.905 298.856 403.907 298.856 403.909 298.856C403.911 298.856 403.913 298.856 403.915 298.856C403.917 298.856 403.919 298.856 403.922 298.856C403.924 298.856 403.926 298.856 403.928 298.856C403.93 298.856 403.932 298.856 403.934 298.856C403.936 298.856 403.938 298.856 403.94 298.856C403.943 298.856 403.945 298.856 403.947 298.856C403.949 298.856 403.951 298.856 403.953 298.856C403.955 298.856 403.957 298.856 403.959 298.856C403.961 298.856 403.964 298.856 403.966 298.856C403.968 298.856 403.97 298.856 403.972 298.856C403.974 298.856 403.976 298.856 403.978 298.856C403.98 298.856 403.982 298.856 403.985 298.856C403.987 298.856 403.989 298.856 403.991 298.856C403.993 298.856 403.995 298.856 403.997 298.856C403.999 298.856 404.001 298.856 404.003 298.856C404.006 298.856 404.008 298.856 404.01 298.856C404.012 298.856 404.014 298.856 404.016 298.856C404.018 298.856 404.02 298.856 404.022 298.856C404.024 298.856 404.026 298.856 404.029 298.856C404.031 298.856 404.033 298.856 404.035 298.856C404.037 298.856 404.039 298.856 404.041 298.856C404.043 298.856 404.045 298.856 404.047 298.856C404.049 298.856 404.052 298.856 404.054 298.856C404.056 298.856 404.058 298.856 404.06 298.856C404.062 298.856 404.064 298.856 404.066 298.856C404.068 298.856 404.07 298.856 404.072 298.856C404.075 298.856 404.077 298.856 404.079 298.856C404.081 298.856 404.083 298.856 404.085 298.856C404.087 298.856 404.089 298.856 404.091 298.856C404.093 298.856 404.095 298.856 404.097 298.856C404.1 298.856 404.102 298.856 404.104 298.856C404.106 298.856 404.108 298.856 404.11 298.856C404.112 298.856 404.114 298.856 404.116 298.856C404.118 298.856 404.12 298.856 404.122 298.856C404.125 298.856 404.127 298.856 404.129 298.856C404.131 298.856 404.133 298.856 404.135 298.856C404.137 298.856 404.139 298.856 404.141 298.856C404.143 298.856 404.145 298.856 404.147 298.856C404.149 298.856 404.152 298.856 404.154 298.856C404.156 298.856 404.158 298.856 404.16 298.856C404.162 298.856 404.164 298.856 404.166 298.856C404.168 298.856 404.17 298.856 404.172 298.856C404.174 298.856 404.176 298.856 404.179 298.856C404.181 298.856 404.183 298.856 404.185 298.856C404.187 298.856 404.189 298.856 404.191 298.856C404.193 298.856 404.195 298.856 404.197 298.856C404.199 298.856 404.201 298.856 404.203 298.856C404.205 298.856 404.208 298.856 404.21 298.856C404.212 298.856 404.214 298.856 404.216 298.856C404.218 298.856 404.22 298.856 404.222 298.856C404.224 298.856 404.226 298.856 404.228 298.856C404.23 298.856 404.232 298.856 404.234 298.856C404.237 298.856 404.239 298.856 404.241 298.856C404.243 298.856 404.245 298.856 404.247 298.856C404.249 298.856 404.251 298.856 404.253 298.856C404.255 298.856 404.257 298.856 404.259 298.856C404.261 298.856 404.263 298.856 404.265 298.856C404.267 298.856 404.27 298.856 404.272 298.856C404.274 298.856 404.276 298.856 404.278 298.856C404.28 298.856 404.282 298.856 404.284 298.856C404.286 298.856 404.288 298.856 404.29 298.856C404.292 298.856 404.294 298.856 404.296 298.856C404.298 298.856 404.3 298.856 404.303 298.856C404.305 298.856 404.307 298.856 404.309 298.856C404.311 298.856 404.313 298.856 404.315 298.856C404.317 298.856 404.319 298.856 404.321 298.856C404.323 298.856 404.325 298.856 404.327 298.856C404.329 298.856 404.331 298.856 404.333 298.856C404.335 298.856 404.337 298.856 404.34 298.856C404.342 298.856 404.344 298.856 404.346 298.856C404.348 298.856 404.35 298.856 404.352 298.856C404.354 298.856 404.356 298.856 404.358 298.856C404.36 298.856 404.362 298.856 404.364 298.856C404.366 298.856 404.368 298.856 404.37 298.856C404.372 298.856 404.374 298.856 404.376 298.856C404.379 298.856 404.381 298.856 404.383 298.856C404.385 298.856 404.387 298.856 404.389 298.856C404.391 298.856 404.393 298.856 404.395 298.856C404.397 298.856 404.399 298.856 404.401 298.856C404.403 298.856 404.405 298.856 404.407 298.856C404.409 298.856 404.411 298.856 404.413 298.856C404.415 298.856 404.417 298.856 404.419 298.856C404.421 298.856 404.424 298.856 404.426 298.856C404.428 298.856 404.43 298.856 404.432 298.856C404.434 298.856 404.436 298.856 404.438 298.856C404.44 298.856 404.442 298.856 404.444 298.856C404.446 298.856 404.448 298.856 404.45 298.856C404.452 298.856 404.454 298.856 404.456 298.856C404.458 298.856 404.46 298.856 404.462 298.856C404.464 298.856 404.466 298.856 404.468 298.856C404.47 298.856 404.473 298.856 404.475 298.856C404.477 298.856 404.479 298.856 404.481 298.856C404.483 298.856 404.485 298.856 404.487 298.856C404.489 298.856 404.491 298.856 404.493 298.856C404.495 298.856 404.497 298.856 404.499 298.856C404.501 298.856 404.503 298.856 404.505 298.856C404.507 298.856 404.509 298.856 404.511 298.856C404.513 298.856 404.515 298.856 404.517 298.856C404.519 298.856 404.521 298.856 404.523 298.856C404.525 298.856 404.527 298.856 404.529 298.856C404.531 298.856 404.534 298.856 404.536 298.856C404.538 298.856 404.54 298.856 404.542 298.856C404.544 298.856 404.546 298.856 404.548 298.856C404.55 298.856 404.552 298.856 404.554 298.856C404.556 298.856 404.558 298.856 404.56 298.856C404.562 298.856 404.564 298.856 404.566 298.856C404.568 298.856 404.57 298.856 404.572 298.856C404.574 298.856 404.576 298.856 404.578 298.856C404.58 298.856 404.582 298.856 404.584 298.856C404.586 298.856 404.588 298.856 404.59 298.856C404.592 298.856 404.594 298.856 404.596 298.856C404.598 298.856 404.6 298.856 404.602 298.856C404.604 298.856 404.606 298.856 404.608 298.856C404.611 298.856 404.613 298.856 404.615 298.856C404.617 298.856 404.619 298.856 404.621 298.856C404.623 298.856 404.625 298.856 404.627 298.856C404.629 298.856 404.631 298.856 404.633 298.856C404.635 298.856 404.637 298.856 404.639 298.856C404.641 298.856 404.643 298.856 404.645 298.856C404.647 298.856 404.649 298.856 404.651 298.856C404.653 298.856 404.655 298.856 404.657 298.856C404.659 298.856 404.661 298.856 404.663 298.856C404.665 298.856 404.667 298.856 404.669 298.856C404.671 298.856 404.673 298.856 404.675 298.856C404.677 298.856 404.679 298.856 404.681 298.856C404.683 298.856 404.685 298.856 404.687 298.856C404.689 298.856 404.691 298.856 404.693 298.856C404.695 298.856 404.697 298.856 404.699 298.856C404.701 298.856 404.703 298.856 404.705 298.856C404.707 298.856 404.709 298.856 404.711 298.856C404.713 298.856 404.715 298.856 404.717 298.856C404.719 298.856 404.721 298.856 404.723 298.856C404.725 298.856 404.727 298.856 404.729 298.856C404.731 298.856 404.733 298.856 404.735 298.856C404.737 298.856 404.739 298.856 404.741 298.856C404.743 298.856 404.745 298.856 404.747 298.856C404.749 298.856 404.751 298.856 404.753 298.856C404.755 298.856 404.757 298.856 404.759 298.856C404.761 298.856 404.763 298.856 404.765 298.856C404.767 298.856 404.769 298.856 404.771 298.856C404.773 298.856 404.775 298.856 404.777 298.856C404.779 298.856 404.781 298.856 404.783 298.856C404.785 298.856 404.787 298.856 404.789 298.856C404.791 298.856 404.793 298.856 404.795 298.856C404.797 298.856 404.799 298.856 404.801 298.856C404.803 298.856 404.805 298.856 404.807 298.856C404.809 298.856 404.811 298.856 404.813 298.856C404.815 298.856 404.817 298.856 404.819 298.856C404.821 298.856 404.823 298.856 404.825 298.856C404.827 298.856 404.829 298.856 404.831 298.856C404.833 298.856 404.835 298.856 404.837 298.856C404.839 298.856 404.841 298.856 404.843 298.856C404.845 298.856 404.847 298.856 404.849 298.856C404.851 298.856 404.853 298.856 404.855 298.856C404.857 298.856 404.859 298.856 404.861 298.856C404.863 298.856 404.865 298.856 404.867 298.856C404.869 298.856 404.871 298.856 404.873 298.856C404.875 298.856 404.877 298.856 404.879 298.856C404.881 298.856 404.883 298.856 404.885 298.856C404.887 298.856 404.889 298.856 404.891 298.856C404.893 298.856 404.895 298.856 404.897 298.856C404.899 298.856 404.901 298.856 404.903 298.856C404.905 298.856 404.907 298.856 404.909 298.856C404.911 298.856 404.913 298.856 404.915 298.856C404.917 298.856 404.919 298.856 404.921 298.856C404.923 298.856 404.925 298.856 404.927 298.856C404.929 298.856 404.931 298.856 404.933 298.856C404.935 298.856 404.937 298.856 404.939 298.856C404.94 298.856 404.942 298.856 404.944 298.856C404.946 298.856 404.948 298.856 404.95 298.856C404.952 298.856 404.954 298.856 404.956 298.856C404.958 298.856 404.96 298.856 404.962 298.856C404.964 298.856 404.966 298.856 404.968 298.856C404.97 298.856 404.972 298.856 404.974 298.856C404.976 298.856 404.978 298.856 404.98 298.856C404.982 298.856 404.984 298.856 404.986 298.856C404.988 298.856 404.99 298.856 404.992 298.856C404.994 298.856 404.996 298.856 404.998 298.856C405 298.856 405.002 298.856 405.004 298.856C405.006 298.856 405.008 298.856 405.01 298.856C405.012 298.856 405.014 298.856 405.016 298.856C405.017 298.856 405.019 298.856 405.021 298.856C405.023 298.856 405.025 298.856 405.027 298.856C405.029 298.856 405.031 298.856 405.033 298.856C405.035 298.856 405.037 298.856 405.039 298.856C405.041 298.856 405.043 298.856 405.045 298.856C405.047 298.856 405.049 298.856 405.051 298.856C405.053 298.856 405.055 298.856 405.057 298.856C405.059 298.856 405.061 298.856 405.063 298.856C405.065 298.856 405.067 298.856 405.069 298.856C405.071 298.856 405.073 298.856 405.074 298.856C405.076 298.856 405.078 298.856 405.08 298.856C405.082 298.856 405.084 298.856 405.086 298.856C405.088 298.856 405.09 298.856 405.092 298.856C405.094 298.856 405.096 298.856 405.098 298.856C405.1 298.856 405.102 298.856 405.104 298.856C405.106 298.856 405.108 298.856 405.11 298.856C405.112 298.856 405.114 298.856 405.116 298.856C405.118 298.856 405.12 298.856 405.121 298.856C405.123 298.856 405.125 298.856 405.127 298.856C405.129 298.856 405.131 298.856 405.133 298.856C405.135 298.856 405.137 298.856 405.139 298.856C405.141 298.856 405.143 298.856 405.145 298.856C405.147 298.856 405.149 298.856 405.151 298.856C405.153 298.856 405.155 298.856 405.157 298.856C405.159 298.856 405.161 298.856 405.163 298.856C405.164 298.856 405.166 298.856 405.168 298.856C405.17 298.856 405.172 298.856 405.174 298.856C405.176 298.856 405.178 298.856 405.18 298.856C405.182 298.856 405.184 298.856 405.186 298.856C405.188 298.856 405.19 298.856 405.192 298.856C405.194 298.856 405.196 298.856 405.198 298.856C405.2 298.856 405.201 298.856 405.203 298.856C405.205 298.856 405.207 298.856 405.209 298.856C405.211 298.856 405.213 298.856 405.215 298.856C405.217 298.856 405.219 298.856 405.221 298.856C405.223 298.856 405.225 298.856 405.227 298.856C405.229 298.856 405.231 298.856 405.233 298.856C405.234 298.856 405.236 298.856 405.238 298.856C405.24 298.856 405.242 298.856 405.244 298.856C405.246 298.856 405.248 298.856 405.25 298.856C405.252 298.856 405.254 298.856 405.256 298.856C405.258 298.856 405.26 298.856 405.262 298.856V290.856C405.26 290.856 405.258 290.856 405.256 290.856C405.254 290.856 405.252 290.856 405.25 290.856C405.248 290.856 405.246 290.856 405.244 290.856C405.242 290.856 405.24 290.856 405.238 290.856C405.236 290.856 405.234 290.856 405.233 290.856C405.231 290.856 405.229 290.856 405.227 290.856C405.225 290.856 405.223 290.856 405.221 290.856C405.219 290.856 405.217 290.856 405.215 290.856C405.213 290.856 405.211 290.856 405.209 290.856C405.207 290.856 405.205 290.856 405.203 290.856C405.201 290.856 405.2 290.856 405.198 290.856C405.196 290.856 405.194 290.856 405.192 290.856C405.19 290.856 405.188 290.856 405.186 290.856C405.184 290.856 405.182 290.856 405.18 290.856C405.178 290.856 405.176 290.856 405.174 290.856C405.172 290.856 405.17 290.856 405.168 290.856C405.166 290.856 405.164 290.856 405.163 290.856C405.161 290.856 405.159 290.856 405.157 290.856C405.155 290.856 405.153 290.856 405.151 290.856C405.149 290.856 405.147 290.856 405.145 290.856C405.143 290.856 405.141 290.856 405.139 290.856C405.137 290.856 405.135 290.856 405.133 290.856C405.131 290.856 405.129 290.856 405.127 290.856C405.125 290.856 405.123 290.856 405.121 290.856C405.12 290.856 405.118 290.856 405.116 290.856C405.114 290.856 405.112 290.856 405.11 290.856C405.108 290.856 405.106 290.856 405.104 290.856C405.102 290.856 405.1 290.856 405.098 290.856C405.096 290.856 405.094 290.856 405.092 290.856C405.09 290.856 405.088 290.856 405.086 290.856C405.084 290.856 405.082 290.856 405.08 290.856C405.078 290.856 405.076 290.856 405.074 290.856C405.073 290.856 405.071 290.856 405.069 290.856C405.067 290.856 405.065 290.856 405.063 290.856C405.061 290.856 405.059 290.856 405.057 290.856C405.055 290.856 405.053 290.856 405.051 290.856C405.049 290.856 405.047 290.856 405.045 290.856C405.043 290.856 405.041 290.856 405.039 290.856C405.037 290.856 405.035 290.856 405.033 290.856C405.031 290.856 405.029 290.856 405.027 290.856C405.025 290.856 405.023 290.856 405.021 290.856C405.019 290.856 405.017 290.856 405.016 290.856C405.014 290.856 405.012 290.856 405.01 290.856C405.008 290.856 405.006 290.856 405.004 290.856C405.002 290.856 405 290.856 404.998 290.856C404.996 290.856 404.994 290.856 404.992 290.856C404.99 290.856 404.988 290.856 404.986 290.856C404.984 290.856 404.982 290.856 404.98 290.856C404.978 290.856 404.976 290.856 404.974 290.856C404.972 290.856 404.97 290.856 404.968 290.856C404.966 290.856 404.964 290.856 404.962 290.856C404.96 290.856 404.958 290.856 404.956 290.856C404.954 290.856 404.952 290.856 404.95 290.856C404.948 290.856 404.946 290.856 404.944 290.856C404.942 290.856 404.94 290.856 404.939 290.856C404.937 290.856 404.935 290.856 404.933 290.856C404.931 290.856 404.929 290.856 404.927 290.856C404.925 290.856 404.923 290.856 404.921 290.856C404.919 290.856 404.917 290.856 404.915 290.856C404.913 290.856 404.911 290.856 404.909 290.856C404.907 290.856 404.905 290.856 404.903 290.856C404.901 290.856 404.899 290.856 404.897 290.856C404.895 290.856 404.893 290.856 404.891 290.856C404.889 290.856 404.887 290.856 404.885 290.856C404.883 290.856 404.881 290.856 404.879 290.856C404.877 290.856 404.875 290.856 404.873 290.856C404.871 290.856 404.869 290.856 404.867 290.856C404.865 290.856 404.863 290.856 404.861 290.856C404.859 290.856 404.857 290.856 404.855 290.856C404.853 290.856 404.851 290.856 404.849 290.856C404.847 290.856 404.845 290.856 404.843 290.856C404.841 290.856 404.839 290.856 404.837 290.856C404.835 290.856 404.833 290.856 404.831 290.856C404.829 290.856 404.827 290.856 404.825 290.856C404.823 290.856 404.821 290.856 404.819 290.856C404.817 290.856 404.815 290.856 404.813 290.856C404.811 290.856 404.809 290.856 404.807 290.856C404.805 290.856 404.803 290.856 404.801 290.856C404.799 290.856 404.797 290.856 404.795 290.856C404.793 290.856 404.791 290.856 404.789 290.856C404.787 290.856 404.785 290.856 404.783 290.856C404.781 290.856 404.779 290.856 404.777 290.856C404.775 290.856 404.773 290.856 404.771 290.856C404.769 290.856 404.767 290.856 404.765 290.856C404.763 290.856 404.761 290.856 404.759 290.856C404.757 290.856 404.755 290.856 404.753 290.856C404.751 290.856 404.749 290.856 404.747 290.856C404.745 290.856 404.743 290.856 404.741 290.856C404.739 290.856 404.737 290.856 404.735 290.856C404.733 290.856 404.731 290.856 404.729 290.856C404.727 290.856 404.725 290.856 404.723 290.856C404.721 290.856 404.719 290.856 404.717 290.856C404.715 290.856 404.713 290.856 404.711 290.856C404.709 290.856 404.707 290.856 404.705 290.856C404.703 290.856 404.701 290.856 404.699 290.856C404.697 290.856 404.695 290.856 404.693 290.856C404.691 290.856 404.689 290.856 404.687 290.856C404.685 290.856 404.683 290.856 404.681 290.856C404.679 290.856 404.677 290.856 404.675 290.856C404.673 290.856 404.671 290.856 404.669 290.856C404.667 290.856 404.665 290.856 404.663 290.856C404.661 290.856 404.659 290.856 404.657 290.856C404.655 290.856 404.653 290.856 404.651 290.856C404.649 290.856 404.647 290.856 404.645 290.856C404.643 290.856 404.641 290.856 404.639 290.856C404.637 290.856 404.635 290.856 404.633 290.856C404.631 290.856 404.629 290.856 404.627 290.856C404.625 290.856 404.623 290.856 404.621 290.856C404.619 290.856 404.617 290.856 404.615 290.856C404.613 290.856 404.611 290.856 404.608 290.856C404.606 290.856 404.604 290.856 404.602 290.856C404.6 290.856 404.598 290.856 404.596 290.856C404.594 290.856 404.592 290.856 404.59 290.856C404.588 290.856 404.586 290.856 404.584 290.856C404.582 290.856 404.58 290.856 404.578 290.856C404.576 290.856 404.574 290.856 404.572 290.856C404.57 290.856 404.568 290.856 404.566 290.856C404.564 290.856 404.562 290.856 404.56 290.856C404.558 290.856 404.556 290.856 404.554 290.856C404.552 290.856 404.55 290.856 404.548 290.856C404.546 290.856 404.544 290.856 404.542 290.856C404.54 290.856 404.538 290.856 404.536 290.856C404.534 290.856 404.531 290.856 404.529 290.856C404.527 290.856 404.525 290.856 404.523 290.856C404.521 290.856 404.519 290.856 404.517 290.856C404.515 290.856 404.513 290.856 404.511 290.856C404.509 290.856 404.507 290.856 404.505 290.856C404.503 290.856 404.501 290.856 404.499 290.856C404.497 290.856 404.495 290.856 404.493 290.856C404.491 290.856 404.489 290.856 404.487 290.856C404.485 290.856 404.483 290.856 404.481 290.856C404.479 290.856 404.477 290.856 404.475 290.856C404.473 290.856 404.47 290.856 404.468 290.856C404.466 290.856 404.464 290.856 404.462 290.856C404.46 290.856 404.458 290.856 404.456 290.856C404.454 290.856 404.452 290.856 404.45 290.856C404.448 290.856 404.446 290.856 404.444 290.856C404.442 290.856 404.44 290.856 404.438 290.856C404.436 290.856 404.434 290.856 404.432 290.856C404.43 290.856 404.428 290.856 404.426 290.856C404.424 290.856 404.421 290.856 404.419 290.856C404.417 290.856 404.415 290.856 404.413 290.856C404.411 290.856 404.409 290.856 404.407 290.856C404.405 290.856 404.403 290.856 404.401 290.856C404.399 290.856 404.397 290.856 404.395 290.856C404.393 290.856 404.391 290.856 404.389 290.856C404.387 290.856 404.385 290.856 404.383 290.856C404.381 290.856 404.379 290.856 404.376 290.856C404.374 290.856 404.372 290.856 404.37 290.856C404.368 290.856 404.366 290.856 404.364 290.856C404.362 290.856 404.36 290.856 404.358 290.856C404.356 290.856 404.354 290.856 404.352 290.856C404.35 290.856 404.348 290.856 404.346 290.856C404.344 290.856 404.342 290.856 404.34 290.856C404.337 290.856 404.335 290.856 404.333 290.856C404.331 290.856 404.329 290.856 404.327 290.856C404.325 290.856 404.323 290.856 404.321 290.856C404.319 290.856 404.317 290.856 404.315 290.856C404.313 290.856 404.311 290.856 404.309 290.856C404.307 290.856 404.305 290.856 404.303 290.856C404.3 290.856 404.298 290.856 404.296 290.856C404.294 290.856 404.292 290.856 404.29 290.856C404.288 290.856 404.286 290.856 404.284 290.856C404.282 290.856 404.28 290.856 404.278 290.856C404.276 290.856 404.274 290.856 404.272 290.856C404.27 290.856 404.267 290.856 404.265 290.856C404.263 290.856 404.261 290.856 404.259 290.856C404.257 290.856 404.255 290.856 404.253 290.856C404.251 290.856 404.249 290.856 404.247 290.856C404.245 290.856 404.243 290.856 404.241 290.856C404.239 290.856 404.237 290.856 404.234 290.856C404.232 290.856 404.23 290.856 404.228 290.856C404.226 290.856 404.224 290.856 404.222 290.856C404.22 290.856 404.218 290.856 404.216 290.856C404.214 290.856 404.212 290.856 404.21 290.856C404.208 290.856 404.205 290.856 404.203 290.856C404.201 290.856 404.199 290.856 404.197 290.856C404.195 290.856 404.193 290.856 404.191 290.856C404.189 290.856 404.187 290.856 404.185 290.856C404.183 290.856 404.181 290.856 404.179 290.856C404.176 290.856 404.174 290.856 404.172 290.856C404.17 290.856 404.168 290.856 404.166 290.856C404.164 290.856 404.162 290.856 404.16 290.856C404.158 290.856 404.156 290.856 404.154 290.856C404.152 290.856 404.149 290.856 404.147 290.856C404.145 290.856 404.143 290.856 404.141 290.856C404.139 290.856 404.137 290.856 404.135 290.856C404.133 290.856 404.131 290.856 404.129 290.856C404.127 290.856 404.125 290.856 404.122 290.856C404.12 290.856 404.118 290.856 404.116 290.856C404.114 290.856 404.112 290.856 404.11 290.856C404.108 290.856 404.106 290.856 404.104 290.856C404.102 290.856 404.1 290.856 404.097 290.856C404.095 290.856 404.093 290.856 404.091 290.856C404.089 290.856 404.087 290.856 404.085 290.856C404.083 290.856 404.081 290.856 404.079 290.856C404.077 290.856 404.075 290.856 404.072 290.856C404.07 290.856 404.068 290.856 404.066 290.856C404.064 290.856 404.062 290.856 404.06 290.856C404.058 290.856 404.056 290.856 404.054 290.856C404.052 290.856 404.049 290.856 404.047 290.856C404.045 290.856 404.043 290.856 404.041 290.856C404.039 290.856 404.037 290.856 404.035 290.856C404.033 290.856 404.031 290.856 404.029 290.856C404.026 290.856 404.024 290.856 404.022 290.856C404.02 290.856 404.018 290.856 404.016 290.856C404.014 290.856 404.012 290.856 404.01 290.856C404.008 290.856 404.006 290.856 404.003 290.856C404.001 290.856 403.999 290.856 403.997 290.856C403.995 290.856 403.993 290.856 403.991 290.856C403.989 290.856 403.987 290.856 403.985 290.856C403.982 290.856 403.98 290.856 403.978 290.856C403.976 290.856 403.974 290.856 403.972 290.856C403.97 290.856 403.968 290.856 403.966 290.856C403.964 290.856 403.961 290.856 403.959 290.856C403.957 290.856 403.955 290.856 403.953 290.856C403.951 290.856 403.949 290.856 403.947 290.856C403.945 290.856 403.943 290.856 403.94 290.856C403.938 290.856 403.936 290.856 403.934 290.856C403.932 290.856 403.93 290.856 403.928 290.856C403.926 290.856 403.924 290.856 403.922 290.856C403.919 290.856 403.917 290.856 403.915 290.856C403.913 290.856 403.911 290.856 403.909 290.856C403.907 290.856 403.905 290.856 403.903 290.856C403.9 290.856 403.898 290.856 403.896 290.856C403.894 290.856 403.892 290.856 403.89 290.856C403.888 290.856 403.886 290.856 403.884 290.856C403.882 290.856 403.879 290.856 403.877 290.856C403.875 290.856 403.873 290.856 403.871 290.856C403.869 290.856 403.867 290.856 403.865 290.856C403.862 290.856 403.86 290.856 403.858 290.856C403.856 290.856 403.854 290.856 403.852 290.856C403.85 290.856 403.848 290.856 403.846 290.856C403.843 290.856 403.841 290.856 403.839 290.856C403.837 290.856 403.835 290.856 403.833 290.856C403.831 290.856 403.829 290.856 403.827 290.856C403.824 290.856 403.822 290.856 403.82 290.856C403.818 290.856 403.816 290.856 403.814 290.856C403.812 290.856 403.81 290.856 403.807 290.856C403.805 290.856 403.803 290.856 403.801 290.856C403.799 290.856 403.797 290.856 403.795 290.856C403.793 290.856 403.791 290.856 403.788 290.856C403.786 290.856 403.784 290.856 403.782 290.856C403.78 290.856 403.778 290.856 403.776 290.856C403.774 290.856 403.771 290.856 403.769 290.856C403.767 290.856 403.765 290.856 403.763 290.856C403.761 290.856 403.759 290.856 403.757 290.856C403.754 290.856 403.752 290.856 403.75 290.856C403.748 290.856 403.746 290.856 403.744 290.856C403.742 290.856 403.74 290.856 403.737 290.856C403.735 290.856 403.733 290.856 403.731 290.856C403.729 290.856 403.727 290.856 403.725 290.856C403.723 290.856 403.72 290.856 403.718 290.856C403.716 290.856 403.714 290.856 403.712 290.856C403.71 290.856 403.708 290.856 403.706 290.856C403.703 290.856 403.701 290.856 403.699 290.856C403.697 290.856 403.695 290.856 403.693 290.856C403.691 290.856 403.688 290.856 403.686 290.856C403.684 290.856 403.682 290.856 403.68 290.856C403.678 290.856 403.676 290.856 403.674 290.856C403.671 290.856 403.669 290.856 403.667 290.856C403.665 290.856 403.663 290.856 403.661 290.856C403.659 290.856 403.656 290.856 403.654 290.856C403.652 290.856 403.65 290.856 403.648 290.856C403.646 290.856 403.644 290.856 403.641 290.856C403.639 290.856 403.637 290.856 403.635 290.856C403.633 290.856 403.631 290.856 403.629 290.856C403.626 290.856 403.624 290.856 403.622 290.856C403.62 290.856 403.618 290.856 403.616 290.856C403.614 290.856 403.612 290.856 403.609 290.856C403.607 290.856 403.605 290.856 403.603 290.856C403.601 290.856 403.599 290.856 403.597 290.856C403.594 290.856 403.592 290.856 403.59 290.856C403.588 290.856 403.586 290.856 403.584 290.856C403.582 290.856 403.579 290.856 403.577 290.856C403.575 290.856 403.573 290.856 403.571 290.856C403.569 290.856 403.566 290.856 403.564 290.856C403.562 290.856 403.56 290.856 403.558 290.856C403.556 290.856 403.554 290.856 403.551 290.856C403.549 290.856 403.547 290.856 403.545 290.856C403.543 290.856 403.541 290.856 403.539 290.856C403.536 290.856 403.534 290.856 403.532 290.856C403.53 290.856 403.528 290.856 403.526 290.856C403.523 290.856 403.521 290.856 403.519 290.856C403.517 290.856 403.515 290.856 403.513 290.856C403.511 290.856 403.508 290.856 403.506 290.856C403.504 290.856 403.502 290.856 403.5 290.856C403.498 290.856 403.495 290.856 403.493 290.856C403.491 290.856 403.489 290.856 403.487 290.856C403.485 290.856 403.483 290.856 403.48 290.856C403.478 290.856 403.476 290.856 403.474 290.856C403.472 290.856 403.47 290.856 403.467 290.856C403.465 290.856 403.463 290.856 403.461 290.856C403.459 290.856 403.457 290.856 403.454 290.856C403.452 290.856 403.45 290.856 403.448 290.856C403.446 290.856 403.444 290.856 403.442 290.856C403.439 290.856 403.437 290.856 403.435 290.856C403.433 290.856 403.431 290.856 403.429 290.856C403.426 290.856 403.424 290.856 403.422 290.856C403.42 290.856 403.418 290.856 403.416 290.856C403.413 290.856 403.411 290.856 403.409 290.856C403.407 290.856 403.405 290.856 403.403 290.856C403.4 290.856 403.398 290.856 403.396 290.856C403.394 290.856 403.392 290.856 403.39 290.856C403.387 290.856 403.385 290.856 403.383 290.856C403.381 290.856 403.379 290.856 403.377 290.856C403.374 290.856 403.372 290.856 403.37 290.856C403.368 290.856 403.366 290.856 403.364 290.856C403.361 290.856 403.359 290.856 403.357 290.856C403.355 290.856 403.353 290.856 403.351 290.856C403.348 290.856 403.346 290.856 403.344 290.856C403.342 290.856 403.34 290.856 403.337 290.856C403.335 290.856 403.333 290.856 403.331 290.856C403.329 290.856 403.327 290.856 403.324 290.856C403.322 290.856 403.32 290.856 403.318 290.856C403.316 290.856 403.314 290.856 403.311 290.856C403.309 290.856 403.307 290.856 403.305 290.856C403.303 290.856 403.3 290.856 403.298 290.856C403.296 290.856 403.294 290.856 403.292 290.856C403.29 290.856 403.287 290.856 403.285 290.856C403.283 290.856 403.281 290.856 403.279 290.856C403.277 290.856 403.274 290.856 403.272 290.856C403.27 290.856 403.268 290.856 403.266 290.856C403.263 290.856 403.261 290.856 403.259 290.856C403.257 290.856 403.255 290.856 403.253 290.856C403.25 290.856 403.248 290.856 403.246 290.856C403.244 290.856 403.242 290.856 403.239 290.856C403.237 290.856 403.235 290.856 403.233 290.856C403.231 290.856 403.228 290.856 403.226 290.856C403.224 290.856 403.222 290.856 403.22 290.856C403.218 290.856 403.215 290.856 403.213 290.856C403.211 290.856 403.209 290.856 403.207 290.856C403.204 290.856 403.202 290.856 403.2 290.856C403.198 290.856 403.196 290.856 403.193 290.856C403.191 290.856 403.189 290.856 403.187 290.856C403.185 290.856 403.182 290.856 403.18 290.856C403.178 290.856 403.176 290.856 403.174 290.856C403.172 290.856 403.169 290.856 403.167 290.856C403.165 290.856 403.163 290.856 403.161 290.856C403.158 290.856 403.156 290.856 403.154 290.856C403.152 290.856 403.15 290.856 403.147 290.856C403.145 290.856 403.143 290.856 403.141 290.856C403.139 290.856 403.136 290.856 403.134 290.856C403.132 290.856 403.13 290.856 403.128 290.856C403.125 290.856 403.123 290.856 403.121 290.856C403.119 290.856 403.117 290.856 403.114 290.856C403.112 290.856 403.11 290.856 403.108 290.856C403.106 290.856 403.103 290.856 403.101 290.856C403.099 290.856 403.097 290.856 403.095 290.856C403.092 290.856 403.09 290.856 403.088 290.856C403.086 290.856 403.084 290.856 403.081 290.856C403.079 290.856 403.077 290.856 403.075 290.856C403.073 290.856 403.07 290.856 403.068 290.856C403.066 290.856 403.064 290.856 403.062 290.856C403.059 290.856 403.057 290.856 403.055 290.856C403.053 290.856 403.051 290.856 403.048 290.856C403.046 290.856 403.044 290.856 403.042 290.856C403.039 290.856 403.037 290.856 403.035 290.856C403.033 290.856 403.031 290.856 403.028 290.856C403.026 290.856 403.024 290.856 403.022 290.856C403.02 290.856 403.017 290.856 403.015 290.856C403.013 290.856 403.011 290.856 403.009 290.856C403.006 290.856 403.004 290.856 403.002 290.856C403 290.856 402.997 290.856 402.995 290.856C402.993 290.856 402.991 290.856 402.989 290.856C402.986 290.856 402.984 290.856 402.982 290.856C402.98 290.856 402.978 290.856 402.975 290.856C402.973 290.856 402.971 290.856 402.969 290.856C402.966 290.856 402.964 290.856 402.962 290.856C402.96 290.856 402.958 290.856 402.955 290.856C402.953 290.856 402.951 290.856 402.949 290.856C402.947 290.856 402.944 290.856 402.942 290.856C402.94 290.856 402.938 290.856 402.935 290.856C402.933 290.856 402.931 290.856 402.929 290.856C402.927 290.856 402.924 290.856 402.922 290.856C402.92 290.856 402.918 290.856 402.915 290.856C402.913 290.856 402.911 290.856 402.909 290.856C402.907 290.856 402.904 290.856 402.902 290.856C402.9 290.856 402.898 290.856 402.895 290.856C402.893 290.856 402.891 290.856 402.889 290.856C402.887 290.856 402.884 290.856 402.882 290.856C402.88 290.856 402.878 290.856 402.875 290.856C402.873 290.856 402.871 290.856 402.869 290.856C402.866 290.856 402.864 290.856 402.862 290.856C402.86 290.856 402.858 290.856 402.855 290.856C402.853 290.856 402.851 290.856 402.849 290.856C402.846 290.856 402.844 290.856 402.842 290.856C402.84 290.856 402.838 290.856 402.835 290.856C402.833 290.856 402.831 290.856 402.829 290.856C402.826 290.856 402.824 290.856 402.822 290.856C402.82 290.856 402.817 290.856 402.815 290.856C402.813 290.856 402.811 290.856 402.809 290.856C402.806 290.856 402.804 290.856 402.802 290.856C402.8 290.856 402.797 290.856 402.795 290.856C402.793 290.856 402.791 290.856 402.788 290.856C402.786 290.856 402.784 290.856 402.782 290.856C402.779 290.856 402.777 290.856 402.775 290.856C402.773 290.856 402.77 290.856 402.768 290.856C402.766 290.856 402.764 290.856 402.762 290.856C402.759 290.856 402.757 290.856 402.755 290.856C402.753 290.856 402.75 290.856 402.748 290.856C402.746 290.856 402.744 290.856 402.741 290.856C402.739 290.856 402.737 290.856 402.735 290.856C402.732 290.856 402.73 290.856 402.728 290.856C402.726 290.856 402.723 290.856 402.721 290.856C402.719 290.856 402.717 290.856 402.714 290.856C402.712 290.856 402.71 290.856 402.708 290.856C402.705 290.856 402.703 290.856 402.701 290.856C402.699 290.856 402.696 290.856 402.694 290.856C402.692 290.856 402.69 290.856 402.687 290.856C402.685 290.856 402.683 290.856 402.681 290.856C402.678 290.856 402.676 290.856 402.674 290.856C402.672 290.856 402.669 290.856 402.667 290.856C402.665 290.856 402.663 290.856 402.66 290.856C402.658 290.856 402.656 290.856 402.654 290.856C402.651 290.856 402.649 290.856 402.647 290.856C402.645 290.856 402.642 290.856 402.64 290.856C402.638 290.856 402.636 290.856 402.633 290.856C402.631 290.856 402.629 290.856 402.627 290.856C402.624 290.856 402.622 290.856 402.62 290.856C402.618 290.856 402.615 290.856 402.613 290.856C402.611 290.856 402.609 290.856 402.606 290.856C402.604 290.856 402.602 290.856 402.6 290.856C402.597 290.856 402.595 290.856 402.593 290.856C402.591 290.856 402.588 290.856 402.586 290.856C402.584 290.856 402.582 290.856 402.579 290.856C402.577 290.856 402.575 290.856 402.572 290.856C402.57 290.856 402.568 290.856 402.566 290.856C402.563 290.856 402.561 290.856 402.559 290.856C402.557 290.856 402.554 290.856 402.552 290.856C402.55 290.856 402.548 290.856 402.545 290.856C402.543 290.856 402.541 290.856 402.539 290.856C402.536 290.856 402.534 290.856 402.532 290.856C402.529 290.856 402.527 290.856 402.525 290.856C402.523 290.856 402.52 290.856 402.518 290.856C402.516 290.856 402.514 290.856 402.511 290.856C402.509 290.856 402.507 290.856 402.505 290.856C402.502 290.856 402.5 290.856 402.498 290.856C402.495 290.856 402.493 290.856 402.491 290.856C402.489 290.856 402.486 290.856 402.484 290.856C402.482 290.856 402.48 290.856 402.477 290.856C402.475 290.856 402.473 290.856 402.47 290.856C402.468 290.856 402.466 290.856 402.464 290.856C402.461 290.856 402.459 290.856 402.457 290.856C402.455 290.856 402.452 290.856 402.45 290.856C402.448 290.856 402.445 290.856 402.443 290.856C402.441 290.856 402.439 290.856 402.436 290.856C402.434 290.856 402.432 290.856 402.43 290.856C402.427 290.856 402.425 290.856 402.423 290.856C402.42 290.856 402.418 290.856 402.416 290.856C402.414 290.856 402.411 290.856 402.409 290.856C402.407 290.856 402.405 290.856 402.402 290.856C402.4 290.856 402.398 290.856 402.395 290.856C402.393 290.856 402.391 290.856 402.389 290.856C402.386 290.856 402.384 290.856 402.382 290.856C402.379 290.856 402.377 290.856 402.375 290.856C402.373 290.856 402.37 290.856 402.368 290.856C402.366 290.856 402.363 290.856 402.361 290.856C402.359 290.856 402.357 290.856 402.354 290.856C402.352 290.856 402.35 290.856 402.347 290.856C402.345 290.856 402.343 290.856 402.341 290.856C402.338 290.856 402.336 290.856 402.334 290.856C402.331 290.856 402.329 290.856 402.327 290.856C402.325 290.856 402.322 290.856 402.32 290.856C402.318 290.856 402.315 290.856 402.313 290.856C402.311 290.856 402.309 290.856 402.306 290.856C402.304 290.856 402.302 290.856 402.299 290.856C402.297 290.856 402.295 290.856 402.292 290.856C402.29 290.856 402.288 290.856 402.286 290.856C402.283 290.856 402.281 290.856 402.279 290.856C402.276 290.856 402.274 290.856 402.272 290.856C402.27 290.856 402.267 290.856 402.265 290.856C402.263 290.856 402.26 290.856 402.258 290.856C402.256 290.856 402.254 290.856 402.251 290.856C402.249 290.856 402.247 290.856 402.244 290.856C402.242 290.856 402.24 290.856 402.237 290.856C402.235 290.856 402.233 290.856 402.231 290.856C402.228 290.856 402.226 290.856 402.224 290.856C402.221 290.856 402.219 290.856 402.217 290.856C402.214 290.856 402.212 290.856 402.21 290.856C402.208 290.856 402.205 290.856 402.203 290.856C402.201 290.856 402.198 290.856 402.196 290.856C402.194 290.856 402.191 290.856 402.189 290.856C402.187 290.856 402.185 290.856 402.182 290.856C402.18 290.856 402.178 290.856 402.175 290.856C402.173 290.856 402.171 290.856 402.168 290.856C402.166 290.856 402.164 290.856 402.161 290.856C402.159 290.856 402.157 290.856 402.155 290.856C402.152 290.856 402.15 290.856 402.148 290.856C402.145 290.856 402.143 290.856 402.141 290.856C402.138 290.856 402.136 290.856 402.134 290.856C402.131 290.856 402.129 290.856 402.127 290.856C402.125 290.856 402.122 290.856 402.12 290.856C402.118 290.856 402.115 290.856 402.113 290.856C402.111 290.856 402.108 290.856 402.106 290.856C402.104 290.856 402.101 290.856 402.099 290.856C402.097 290.856 402.094 290.856 402.092 290.856C402.09 290.856 402.088 290.856 402.085 290.856C402.083 290.856 402.081 290.856 402.078 290.856C402.076 290.856 402.074 290.856 402.071 290.856C402.069 290.856 402.067 290.856 402.064 290.856C402.062 290.856 402.06 290.856 402.057 290.856C402.055 290.856 402.053 290.856 402.05 290.856C402.048 290.856 402.046 290.856 402.043 290.856C402.041 290.856 402.039 290.856 402.037 290.856C402.034 290.856 402.032 290.856 402.03 290.856C402.027 290.856 402.025 290.856 402.023 290.856C402.02 290.856 402.018 290.856 402.016 290.856C402.013 290.856 402.011 290.856 402.009 290.856C402.006 290.856 402.004 290.856 402.002 290.856C401.999 290.856 401.997 290.856 401.995 290.856C401.992 290.856 401.99 290.856 401.988 290.856V298.856ZM406.046 298.778C407.038 298.58 408.03 298.381 409.022 298.183L407.453 290.338C406.461 290.537 405.469 290.735 404.477 290.934L406.046 298.778ZM409.723 297.974C410.686 297.59 411.397 297.325 411.884 297.162L409.354 289.573C408.651 289.807 407.774 290.138 406.752 290.547L409.723 297.974ZM411.589 297.248C412.602 296.995 413.671 296.634 414.783 296.189L411.812 288.761C410.94 289.11 410.223 289.343 409.649 289.487L411.589 297.248ZM415.356 295.905C416.373 295.294 417.227 294.762 417.897 294.315L413.46 287.659C412.939 288.005 412.206 288.465 411.24 289.045L415.356 295.905ZM417.897 294.315C418.418 293.968 419.151 293.508 420.118 292.929L416.002 286.069C414.984 286.679 414.13 287.212 413.46 287.658L417.897 294.315ZM420.558 292.622C421.559 291.822 422.405 291.108 422.971 290.541L417.315 284.884C417.087 285.112 416.544 285.588 415.561 286.375L420.558 292.622ZM422.362 291.041C423.1 290.549 423.998 289.87 425.023 289.051L420.025 282.804C419.066 283.571 418.377 284.083 417.924 284.385L422.362 291.041ZM425.085 289C426.261 288.019 427.016 287.442 427.421 287.172L422.984 280.515C422.199 281.039 421.167 281.851 419.963 282.854L425.085 289ZM429.203 283.844V143.959H421.203V283.844H429.203ZM427.421 140.631L411.35 129.917L406.912 136.573L422.984 147.288L427.421 140.631ZM413.131 133.245V99.0179H405.131V133.245H413.131ZM409.131 103.018H522.526V95.0179H409.131V103.018ZM518.526 99.0179V352H526.526V99.0179H518.526ZM522.526 348H440.084V356H522.526V348ZM443.979 351.092L434.753 311.508L426.962 313.324L436.188 352.908L443.979 351.092ZM659.604 352V356H663.604V352H659.604ZM563.471 352H559.471V356H563.471V352ZM563.471 159.436H567.471V157.203L565.57 156.031L563.471 159.436ZM545.613 148.424H541.613V150.657L543.514 151.829L545.613 148.424ZM545.613 114.792L544.656 110.908L541.613 111.658V114.792H545.613ZM609.603 99.0179V95.0179H609.117L608.645 95.1342L609.603 99.0179ZM633.711 99.0179L637.681 98.5341L637.253 95.0179H633.711V99.0179ZM642.342 169.853L638.371 170.337L646.287 170.513L642.342 169.853ZM736.094 99.6132L740.076 99.9935L740.378 96.825L737.359 95.8185L736.094 99.6132ZM725.975 205.568L723.291 208.534L729.199 213.88L729.956 205.948L725.975 205.568ZM659.604 215.985L656.08 214.092L655.604 214.979V215.985H659.604ZM659.604 348H563.471V356H659.604V348ZM567.471 352V159.436H559.471V352H567.471ZM565.57 156.031L547.713 145.019L543.514 151.829L561.371 162.841L565.57 156.031ZM549.613 148.424V114.792H541.613V148.424H549.613ZM546.571 118.676L610.56 102.902L608.645 95.1342L544.656 110.908L546.571 118.676ZM609.603 103.018H633.711V95.0179H609.603V103.018ZM629.74 99.5018L638.371 170.337L646.312 169.369L637.681 98.5341L629.74 99.5018ZM646.287 170.513C650.264 146.75 658.544 129.451 670.738 118.091C682.88 106.781 699.355 100.935 720.617 100.935V92.9346C697.831 92.9346 679.236 99.2414 665.285 112.237C651.388 125.183 642.555 144.344 638.397 169.193L646.287 170.513ZM720.617 100.935C725.093 100.935 729.824 101.74 734.829 103.408L737.359 95.8185C731.649 93.9153 726.063 92.9346 720.617 92.9346V100.935ZM732.112 99.2329L721.993 205.188L729.956 205.948L740.076 99.9935L732.112 99.2329ZM728.658 202.602C725.804 200.02 721.666 198.412 716.813 197.41C711.885 196.392 705.786 195.913 698.593 195.913V203.913C705.488 203.913 710.996 204.377 715.195 205.244C719.47 206.127 721.978 207.346 723.291 208.534L728.658 202.602ZM698.593 195.913C677.911 195.913 662.911 201.373 656.08 214.092L663.128 217.877C667.805 209.168 678.798 203.913 698.593 203.913V195.913ZM655.604 215.985V352H663.604V215.985H655.604ZM821.864 446.347L823.243 442.593L823.226 442.587L823.209 442.58L821.864 446.347ZM784.065 426.406L780.431 424.735L779.327 427.135L781.101 429.093L784.065 426.406ZM802.816 385.632L805.236 382.447L801.265 379.429L799.181 383.961L802.816 385.632ZM826.923 396.049L825.824 399.895L826.923 396.049ZM876.031 397.537L874.767 393.742L874.689 393.768L874.613 393.797L876.031 397.537ZM889.722 389.799L886.987 386.88L886.94 386.924L886.894 386.97L889.722 389.799ZM897.461 378.489L893.819 376.833L893.805 376.864L893.792 376.894L897.461 378.489ZM901.032 366.584L897.086 365.926L897.069 366.034L897.057 366.142L901.032 366.584ZM902.223 354.679L906.218 354.86L906.223 354.769V354.679H902.223ZM902.223 329.38H906.223V319.482L899.346 326.601L902.223 329.38ZM768.589 321.94L765.283 324.192L768.589 321.94ZM751.922 176.996L755.787 178.024L755.79 178.012L751.922 176.996ZM770.077 135.328L766.757 133.097L766.753 133.103L766.748 133.11L770.077 135.328ZM801.625 107.054L803.479 110.598L803.5 110.587L803.521 110.576L801.625 107.054ZM909.366 113.006L907.297 116.43L911.469 118.951L913.127 114.367L909.366 113.006ZM914.425 99.0179V95.0179H911.618L910.664 97.6574L914.425 99.0179ZM959.962 99.0179L960.153 95.0225L960.058 95.0179H959.962V99.0179ZM1015.92 101.697H1019.92V97.8835L1016.11 97.7012L1015.92 101.697ZM1015.92 129.673L1018.21 132.95L1019.92 131.756V129.673H1015.92ZM998.058 142.174L995.764 138.897L994.058 140.091V142.174H998.058ZM902.223 296.344L904.099 299.876L906.223 298.748V296.344H902.223ZM902.223 139.495H906.223V136.243L903.038 135.579L902.223 139.495ZM889.127 138.007V134.007H889.112L889.097 134.007L889.127 138.007ZM849.245 199.02L845.245 199.001L845.245 199.01V199.02H849.245ZM854.305 277.891L850.553 279.278L850.559 279.294L850.565 279.311L854.305 277.891ZM874.246 453.062C859.369 453.062 842.386 449.625 823.243 442.593L820.484 450.102C840.231 457.356 858.169 461.062 874.246 461.062V453.062ZM823.209 442.58C813.593 439.146 805.772 435.821 799.697 432.616C793.574 429.386 789.453 426.395 787.029 423.72L781.101 429.093C784.431 432.767 789.487 436.275 795.964 439.692C802.488 443.133 810.689 446.604 820.518 450.114L823.209 442.58ZM787.699 428.078L806.45 387.303L799.181 383.961L780.431 424.735L787.699 428.078ZM800.395 388.816C805.958 393.044 814.572 396.68 825.824 399.895L828.022 392.203C817.051 389.068 809.594 385.759 805.236 382.447L800.395 388.816ZM825.824 399.895C837.146 403.129 847.06 404.811 855.495 404.811V396.811C848.057 396.811 838.923 395.317 828.022 392.203L825.824 399.895ZM855.495 404.811C863.783 404.811 871.133 403.673 877.45 401.277L874.613 393.797C869.422 395.766 863.081 396.811 855.495 396.811V404.811ZM877.296 401.331C883.618 399.224 888.798 396.38 892.551 392.627L886.894 386.97C884.297 389.567 880.35 391.881 874.767 393.742L877.296 401.331ZM892.458 392.717C896.084 389.318 898.958 385.076 901.129 380.084L893.792 376.894C891.995 381.029 889.71 384.327 886.987 386.88L892.458 392.717ZM901.102 380.144C903.206 375.515 904.552 371.13 905.008 367.025L897.057 366.142C896.719 369.18 895.683 372.732 893.819 376.833L901.102 380.144ZM904.978 367.241C905.604 363.484 906.014 359.354 906.218 354.86L898.227 354.497C898.034 358.734 897.651 362.54 897.086 365.926L904.978 367.241ZM906.223 354.679V329.38H898.223V354.679H906.223ZM899.346 326.601C883.231 343.284 863.732 351.572 840.614 351.572V359.572C865.909 359.572 887.483 350.398 905.1 332.159L899.346 326.601ZM840.614 351.572C808.886 351.572 786.267 340.78 771.894 319.687L765.283 324.192C781.466 347.942 806.864 359.572 840.614 359.572V351.572ZM771.894 319.687C757.235 298.175 749.671 267.921 749.671 228.485H741.671C741.671 268.813 749.386 300.863 765.283 324.192L771.894 319.687ZM749.671 228.485C749.671 210.13 751.722 193.318 755.787 178.024L748.056 175.968C743.788 192.024 741.671 209.538 741.671 228.485H749.671ZM755.79 178.012C759.861 162.504 765.747 149.034 773.405 137.547L766.748 133.11C758.533 145.433 752.315 159.741 748.053 175.98L755.79 178.012ZM773.396 137.56C781.161 126.008 791.173 117.035 803.479 110.598L799.771 103.509C786.282 110.565 775.263 120.442 766.757 133.097L773.396 137.56ZM803.521 110.576C815.773 103.979 829.693 100.637 845.376 100.637V92.637C828.519 92.637 813.271 96.24 799.729 103.532L803.521 110.576ZM845.376 100.637C869.373 100.637 889.962 105.953 907.297 116.43L911.435 109.583C892.657 98.234 870.586 92.637 845.376 92.637V100.637ZM913.127 114.367L918.187 100.379L910.664 97.6574L905.604 111.646L913.127 114.367ZM914.425 103.018H959.962V95.0179H914.425V103.018ZM959.771 103.013L1015.72 105.692L1016.11 97.7012L960.153 95.0225L959.771 103.013ZM1011.92 101.697V129.673H1019.92V101.697H1011.92ZM1013.62 126.396L995.764 138.897L1000.35 145.451L1018.21 132.95L1013.62 126.396ZM994.058 142.174V340.988H1002.06V142.174H994.058ZM994.058 340.988C994.058 378.994 983.935 406.782 964.369 425.125C944.755 443.514 914.962 453.062 874.246 453.062V461.062C916.071 461.062 948.185 451.264 969.841 430.962C991.545 410.613 1002.06 380.364 1002.06 340.988H994.058ZM883.77 305.404C890.499 305.404 897.291 303.493 904.099 299.876L900.346 292.811C894.455 295.941 888.945 297.404 883.77 297.404V305.404ZM906.223 296.344V139.495H898.223V296.344H906.223ZM903.038 135.579C898.066 134.543 893.423 134.007 889.127 134.007V142.007C892.768 142.007 896.855 142.463 901.407 143.411L903.038 135.579ZM889.097 134.007C874.699 134.115 863.468 139.821 856.016 151.221C848.752 162.334 845.346 178.451 845.245 199.001L853.245 199.04C853.343 179.112 856.683 164.822 862.713 155.598C868.555 146.66 877.165 142.097 889.157 142.007L889.097 134.007ZM845.245 199.02V245.152H853.245V199.02H845.245ZM845.245 245.152C845.245 258.188 846.974 269.594 850.553 279.278L858.057 276.505C854.889 267.934 853.245 257.514 853.245 245.152H845.245ZM850.565 279.311C853.714 287.602 858.012 294.161 863.641 298.652C869.325 303.188 876.104 305.404 883.77 305.404V297.404C877.744 297.404 872.768 295.7 868.63 292.399C864.437 289.053 860.849 283.856 858.044 276.471L850.565 279.311ZM1173.19 198.127V202.127H1177.19V198.127H1173.19ZM1140.45 132.054L1142.31 135.594L1142.39 135.557L1142.46 135.516L1140.45 132.054ZM1132.12 141.876L1135.82 143.391L1135.83 143.362L1135.84 143.334L1132.12 141.876ZM1128.55 155.567L1124.58 155.071L1124.57 155.145L1124.56 155.22L1128.55 155.567ZM1127.95 198.127H1123.95V202.127H1127.95V198.127ZM1091.34 348.131L1089.81 351.826L1089.82 351.829L1089.83 351.832L1091.34 348.131ZM1052.65 319.856L1049.48 322.298L1049.5 322.314L1049.51 322.33L1052.65 319.856ZM1032.12 279.082L1028.27 280.181L1028.27 280.194L1032.12 279.082ZM1059.5 127.292L1056.66 124.476L1059.5 127.292ZM1238.37 120.745L1235.42 123.443L1235.42 123.451L1235.43 123.459L1238.37 120.745ZM1263.67 242.176V246.176H1267.67V242.176H1263.67ZM1127.65 242.176V238.176H1123.65V242.176H1127.65ZM1131.22 276.701L1127.41 277.905L1127.42 277.95L1127.44 277.995L1131.22 276.701ZM1142.24 293.368L1144.64 290.168L1142.24 293.368ZM1156.82 300.511L1155.89 304.4L1156.82 300.511ZM1197.3 299.618L1196.44 295.711L1196.43 295.713L1196.42 295.715L1197.3 299.618ZM1221.7 291.284L1220.05 287.64L1220.04 287.647L1220.02 287.655L1221.7 291.284ZM1242.54 277.891L1245.99 275.874L1243.47 271.563L1239.82 274.96L1242.54 277.891ZM1260.1 307.951L1263.5 310.051L1264.76 308.007L1263.55 305.934L1260.1 307.951ZM1227.66 338.012L1229.62 341.497L1229.63 341.492L1229.64 341.488L1227.66 338.012ZM1177.19 198.127C1177.19 172.918 1175.91 154.631 1173.21 143.602L1165.44 145.508C1167.89 155.511 1169.19 172.939 1169.19 198.127H1177.19ZM1173.21 143.602C1171.83 138.009 1169.78 133.352 1166.78 130.039C1163.66 126.593 1159.66 124.781 1155.03 124.781V132.781C1157.35 132.781 1159.21 133.597 1160.85 135.409C1162.61 137.354 1164.23 140.584 1165.44 145.508L1173.21 143.602ZM1155.03 124.781C1148.63 124.781 1143.01 125.951 1138.45 128.593L1142.46 135.516C1145.43 133.792 1149.54 132.781 1155.03 132.781V124.781ZM1138.59 128.515C1133.84 131.013 1130.47 135.103 1128.39 140.419L1135.84 143.334C1137.33 139.522 1139.52 137.064 1142.31 135.594L1138.59 128.515ZM1128.42 140.362C1126.49 145.059 1125.22 149.965 1124.58 155.071L1132.52 156.063C1133.07 151.645 1134.17 147.424 1135.82 143.391L1128.42 140.362ZM1124.56 155.22C1124.15 159.944 1123.95 165.924 1123.95 173.127H1131.95C1131.95 166.043 1132.15 160.317 1132.53 155.913L1124.56 155.22ZM1123.95 173.127V198.127H1131.95V173.127H1123.95ZM1127.95 202.127H1173.19V194.127H1127.95V202.127ZM1149.38 354.25C1127.55 354.25 1108.74 350.936 1092.86 344.429L1089.83 351.832C1106.88 358.818 1126.76 362.25 1149.38 362.25V354.25ZM1092.88 344.436C1077.15 337.914 1064.84 328.875 1055.8 317.383L1049.51 322.33C1059.51 335.045 1073 344.855 1089.81 351.826L1092.88 344.436ZM1055.82 317.415C1046.81 305.719 1040.19 292.581 1035.96 277.969L1028.27 280.194C1032.77 295.741 1039.84 309.786 1049.48 322.298L1055.82 317.415ZM1035.96 277.983C1031.71 263.118 1029.57 246.53 1029.57 228.188H1021.57C1021.57 247.148 1023.79 264.489 1028.27 280.181L1035.96 277.983ZM1029.57 228.188C1029.57 184.385 1040.71 151.928 1062.34 130.108L1056.66 124.476C1033.05 148.292 1021.57 183.099 1021.57 228.188H1029.57ZM1062.34 130.108C1084.02 108.237 1114.53 97.0654 1154.44 97.0654V89.0654C1113 89.0654 1080.21 100.712 1056.66 124.476L1062.34 130.108ZM1154.44 97.0654C1193.03 97.0654 1219.65 106.189 1235.42 123.443L1241.32 118.046C1223.36 98.3947 1194.03 89.0654 1154.44 89.0654V97.0654ZM1235.43 123.459C1251.29 140.626 1259.67 168.867 1259.67 209.14H1267.67C1267.67 168.061 1259.18 137.372 1241.31 118.03L1235.43 123.459ZM1259.67 209.14V242.176H1267.67V209.14H1259.67ZM1263.67 238.176H1127.65V246.176H1263.67V238.176ZM1123.65 242.176V247.831H1131.65V242.176H1123.65ZM1123.65 247.831C1123.65 259.77 1124.86 269.837 1127.41 277.905L1135.04 275.496C1132.82 268.485 1131.65 259.306 1131.65 247.831H1123.65ZM1127.44 277.995C1130.19 286.043 1134.25 292.376 1139.84 296.568L1144.64 290.168C1140.7 287.216 1137.42 282.439 1135.01 275.406L1127.44 277.995ZM1139.84 296.568C1144.96 300.413 1150.31 303.063 1155.89 304.4L1157.75 296.621C1153.41 295.578 1149.03 293.466 1144.64 290.168L1139.84 296.568ZM1155.89 304.4C1161.25 305.687 1167.63 306.296 1174.98 306.296V298.296C1168.03 298.296 1162.31 297.716 1157.75 296.621L1155.89 304.4ZM1174.98 306.296C1182.26 306.296 1190 305.36 1198.18 303.52L1196.42 295.715C1188.72 297.447 1181.58 298.296 1174.98 298.296V306.296ZM1198.16 303.525C1206.6 301.672 1215.01 298.796 1223.38 294.914L1220.02 287.655C1212.13 291.312 1204.27 293.992 1196.44 295.711L1198.16 303.525ZM1223.35 294.929C1232 291.016 1239.33 286.329 1245.26 280.822L1239.82 274.96C1234.63 279.771 1228.07 284.013 1220.05 287.64L1223.35 294.929ZM1239.08 279.909L1256.64 309.969L1263.55 305.934L1245.99 275.874L1239.08 279.909ZM1256.69 305.852C1249.76 317.093 1239.48 326.674 1225.68 334.536L1229.64 341.488C1244.4 333.079 1255.75 322.62 1263.5 310.051L1256.69 305.852ZM1225.69 334.527C1211.89 342.304 1198.68 347.492 1186.05 350.17L1187.71 357.996C1201.28 355.119 1215.25 349.593 1229.62 341.497L1225.69 334.527ZM1186.05 350.17C1173.19 352.897 1160.97 354.25 1149.38 354.25V362.25C1161.6 362.25 1174.38 360.825 1187.71 357.996L1186.05 350.17ZM1392.04 352V356H1396.04V352H1392.04ZM1295.91 352H1291.91V356H1295.91V352ZM1295.91 159.436H1299.91V157.203L1298.01 156.031L1295.91 159.436ZM1278.05 148.424H1274.05V150.657L1275.95 151.829L1278.05 148.424ZM1278.05 114.792L1277.09 110.908L1274.05 111.658V114.792H1278.05ZM1342.04 99.0179V95.0179H1341.56L1341.08 95.1342L1342.04 99.0179ZM1366.15 99.0179L1370.12 98.5341L1369.69 95.0179H1366.15V99.0179ZM1374.78 169.853L1370.81 170.337L1378.73 170.513L1374.78 169.853ZM1468.53 99.6132L1472.51 99.9935L1472.82 96.825L1469.8 95.8185L1468.53 99.6132ZM1458.41 205.568L1455.73 208.534L1461.64 213.88L1462.4 205.948L1458.41 205.568ZM1392.04 215.985L1388.52 214.092L1388.04 214.979V215.985H1392.04ZM1392.04 348H1295.91V356H1392.04V348ZM1299.91 352V159.436H1291.91V352H1299.91ZM1298.01 156.031L1280.15 145.019L1275.95 151.829L1293.81 162.841L1298.01 156.031ZM1282.05 148.424V114.792H1274.05V148.424H1282.05ZM1279.01 118.676L1343 102.902L1341.08 95.1342L1277.09 110.908L1279.01 118.676ZM1342.04 103.018H1366.15V95.0179H1342.04V103.018ZM1362.18 99.5018L1370.81 170.337L1378.75 169.369L1370.12 98.5341L1362.18 99.5018ZM1378.73 170.513C1382.7 146.75 1390.98 129.451 1403.18 118.091C1415.32 106.781 1431.79 100.935 1453.06 100.935V92.9346C1430.27 92.9346 1411.68 99.2414 1397.72 112.237C1383.83 125.183 1374.99 144.344 1370.84 169.193L1378.73 170.513ZM1453.06 100.935C1457.53 100.935 1462.26 101.74 1467.27 103.408L1469.8 95.8185C1464.09 93.9153 1458.5 92.9346 1453.06 92.9346V100.935ZM1464.55 99.2329L1454.43 205.188L1462.4 205.948L1472.51 99.9935L1464.55 99.2329ZM1461.1 202.602C1458.24 200.02 1454.1 198.412 1449.25 197.41C1444.32 196.392 1438.22 195.913 1431.03 195.913V203.913C1437.93 203.913 1443.43 204.377 1447.63 205.244C1451.91 206.127 1454.42 207.346 1455.73 208.534L1461.1 202.602ZM1431.03 195.913C1410.35 195.913 1395.35 201.373 1388.52 214.092L1395.57 217.877C1400.24 209.168 1411.24 203.913 1431.03 203.913V195.913ZM1388.04 215.985V352H1396.04V215.985H1388.04Z" fill="white" fill-opacity="0.1" mask="url(#path-1-outside-1_24_551)"/>
</svg>
